<svg width="163" height="163" viewBox="0 0 163 163" fill="none" xmlns="http://www.w3.org/2000/svg">
<rect width="163" height="163" rx="10" fill="url(#paint0_linear)"/>
<path d="M103.255 91.423C103.248 91.43 103.241 91.43 103.241 91.437C97.9859 95.1705 91.7644 99.0924 85.0703 103.21L84.8061 103.363C84.7157 103.426 84.6949 103.552 84.7575 103.642C84.82 103.733 84.9451 103.754 85.0355 103.691L85.258 103.573C90.9372 100.6 97.4576 97.0686 104.02 93.4468C104.054 93.4258 104.089 93.4049 104.124 93.391C103.762 92.7908 103.464 92.1348 103.255 91.423V91.423ZM137.734 63.4044C129.455 54.2347 76.1725 62.4833 53.518 67.4519L52.9897 67.5636C52.8785 67.5845 52.809 67.6892 52.8299 67.7939C52.8507 67.9055 52.955 67.9753 53.0593 67.9544L53.5806 67.8497C72.3493 64.4931 111.388 59.8454 119.785 68.2056C122.35 70.7597 121.739 74.0396 118.763 77.9197C120.362 78.9525 121.502 80.5785 122.017 82.6092C133.625 74.877 141.418 67.4868 137.734 63.4044V63.4044Z" fill="#E20C1B"/>
<path d="M106.606 89.0156C106.71 92.2396 108.747 94.8845 111.395 94.8845C116.532 94.8845 118.722 88.548 118.569 84.3191C118.458 81.088 116.372 78.4502 113.724 78.4502C109.31 78.4432 106.453 84.7517 106.606 89.0156V89.0156ZM103.895 88.8411C103.707 83.3351 108.003 77.7035 114.245 77.7035C118.416 77.7035 121.148 80.4949 121.301 84.7727C121.502 90.5788 117.484 95.9103 110.957 95.9103C106.772 95.9103 104.041 93.1259 103.895 88.8411V88.8411Z" fill="white"/>
<path d="M44.7756 87.3896C44.5531 87.4733 44.2681 87.5571 43.9066 87.6338C43.5521 87.7176 42.8987 87.8292 41.9533 87.9828C41.2999 88.0874 40.848 88.22 40.5908 88.4084C40.3476 88.5899 40.2016 88.8062 40.1599 89.0784C40.1112 89.3645 40.2016 89.5878 40.4449 89.7692C40.6951 89.9437 41.1122 90.0344 41.7031 90.0344C42.148 90.0344 42.5789 89.9646 42.996 89.8251C43.4201 89.6855 43.7815 89.4971 44.0526 89.2598C44.2542 89.0854 44.4002 88.862 44.5114 88.5899C44.5809 88.4084 44.6713 88.0107 44.7756 87.3896V87.3896ZM50.1976 84.005C50.1768 84.5075 50.0864 84.9541 49.9543 85.7287L49.0367 90.8998C48.9603 91.3603 49.1271 91.7162 49.5511 91.9675L49.5233 92.1698L44.2681 92.1629L44.2195 90.8509C43.4548 91.3115 42.5303 91.7023 41.6961 91.9326C40.862 92.1489 40.1877 92.2396 39.1797 92.2396C37.4836 92.2396 36.5104 92.0652 35.8361 91.472C35.1549 90.8649 34.8212 90.4601 34.856 89.6227C34.8838 89.1412 35.134 88.5201 35.4886 88.0874C35.85 87.6478 36.3505 87.3617 36.8858 87.1035C37.428 86.8453 38.0675 86.6568 38.992 86.5103C39.9235 86.3568 41.2165 86.2102 42.9474 86.0637C43.858 85.9869 44.4141 85.7776 44.6713 85.6729C45.0328 85.5333 45.1787 85.3728 45.2274 85.0797C45.3247 84.5493 45.1579 84.2423 44.4489 84.1027C42.5581 83.7259 39.0059 84.347 37.1777 84.8006L38.1718 82.1069C40.5839 81.751 42.8431 81.5277 45.2274 81.5277C49.0298 81.5277 50.2393 82.6093 50.1976 84.005V84.005Z" fill="white"/>
<path d="M65.4346 92.1629L67.2558 81.8277H72.2886L70.4674 92.1629H65.4346ZM67.5339 79.4341C67.6868 78.5827 69.0215 77.8988 70.5091 77.8988C72.0036 77.8988 73.095 78.5897 72.949 79.4341C72.7891 80.2855 71.4614 80.9763 69.9599 80.9763C68.4723 80.9763 67.3879 80.2855 67.5339 79.4341V79.4341Z" fill="white"/>
<path d="M90.1584 87.4105C89.929 87.4873 89.6371 87.571 89.2825 87.6548C88.928 87.7385 88.2746 87.8432 87.3292 87.9967C86.6827 88.1014 86.224 88.234 85.9737 88.4224C85.7304 88.5969 85.5914 88.8202 85.5358 89.0854C85.4802 89.3715 85.5844 89.6018 85.8208 89.7762C86.078 89.9507 86.4951 90.0344 87.0859 90.0344C87.5239 90.0344 87.9548 89.9716 88.3789 89.839C88.8099 89.6925 89.1644 89.5111 89.4424 89.2738C89.6371 89.0993 89.783 88.869 89.8873 88.6039C89.9568 88.4294 90.0472 88.0316 90.1584 87.4105V87.4105ZM95.5805 84.019C95.5596 84.5284 95.4693 84.975 95.3302 85.7427L94.4196 90.9207C94.3431 91.3743 94.51 91.7372 94.934 91.9884L94.9062 92.1699L89.651 92.1768L89.6093 90.8579C88.8446 91.3255 87.9131 91.7163 87.0859 91.9396C86.2518 92.1629 85.5775 92.2536 84.5556 92.2536C82.8595 92.2536 81.8933 92.0861 81.219 91.486C80.5308 90.8719 80.2041 90.4741 80.2388 89.6367C80.2597 89.1482 80.5099 88.5271 80.8714 88.1014C81.2329 87.6548 81.7334 87.3756 82.2756 87.1174C82.8178 86.8592 83.4573 86.6708 84.3749 86.5173C85.3064 86.3707 86.6063 86.2172 88.3372 86.0707C89.2408 85.9939 89.7969 85.7915 90.0542 85.6869C90.4226 85.5473 90.5616 85.3868 90.6172 85.0867C90.7076 84.5633 90.5477 84.2563 89.8456 84.1097C87.9409 83.7329 84.4027 84.354 82.5745 84.8076L83.5616 82.1139C85.9807 81.758 88.2329 81.5347 90.6172 81.5347C94.4057 81.5416 95.6152 82.6303 95.5805 84.019V84.019Z" fill="white"/>
<path d="M34.1751 88.4502C32.5345 88.7782 31.617 88.9038 29.9973 88.9038C27.5921 88.9038 25.6805 87.7035 25.7848 85.5053C25.8612 84.0398 27.5852 80.9553 31.9715 80.9553C33.3548 80.9553 34.4323 81.1995 35.8851 82.03L36.5246 78.443C34.5504 77.6964 33.2436 77.5847 31.5474 77.5987C25.7917 77.6615 20.2723 80.2854 19.5842 85.6239C18.889 91.0462 25.4859 92.407 28.4124 92.393C30.1016 92.3861 31.8603 92.3163 33.5008 92.1488L34.1751 88.4502Z" fill="white"/>
<path d="M75.0625 81.772L75.4239 79.6645L80.6861 78.513L80.123 81.765H82.702L82.2154 83.8446L79.7129 83.8376L78.1906 92.149C78.1906 92.149 73.123 92.1141 73.1022 92.149L74.6176 83.8585H72.7129L73.1022 81.765H75.0625V81.772Z" fill="white"/>
<path d="M103.139 77.8846L100.692 92.1556L95.5693 92.1625L98.1483 77.745L103.139 77.8846Z" fill="white"/>
<path d="M58.7752 84.2492C58.1148 84.2492 57.517 84.4516 56.9887 84.8494C56.4604 85.2541 56.1267 85.8403 55.9946 86.6149C55.8347 87.5152 55.9321 88.1642 56.2866 88.5619C56.6481 88.9597 57.1625 89.1621 57.8437 89.1621C58.3025 89.1621 58.7752 89.0783 59.1227 88.9039C59.5537 88.6736 59.8526 88.4363 60.1098 88.0525C60.3879 87.6547 60.5686 87.2081 60.6659 86.6917C60.8119 85.8752 60.6868 85.2681 60.3114 84.8633C59.943 84.4586 59.4356 84.2492 58.7752 84.2492V84.2492ZM49.6133 95.7288L52.0671 81.8835H56.4882L56.1476 83.6491C56.5299 83.1187 57.1416 82.686 57.9897 82.3371C58.8447 81.9882 59.804 81.73 60.8467 81.73C62.0006 81.73 62.7096 81.7928 63.5716 82.2394C64.4266 82.693 65.0314 83.349 65.3512 84.2004C65.6848 85.0378 65.7543 85.9869 65.5736 87.0127C65.2747 88.7224 64.4475 90.0623 63.085 91.0532C61.7365 92.0442 60.52 92.3024 58.7891 92.3094C58.1774 92.3094 57.663 92.2466 57.2389 92.1419C56.8218 92.0302 56.4882 91.8976 56.2379 91.7371C55.9946 91.5766 55.7374 91.3463 55.4107 90.9835L54.5905 95.7288H49.6133Z" fill="white"/>
<path d="M140.965 85.5193C140.938 84.6889 140.521 84.1237 139.666 84.1237C137.601 84.1237 135.404 88.1851 135.029 89.8181C138.414 89.8251 141.049 87.8013 140.965 85.5193V85.5193ZM141.41 91.8837L141.807 92.1559C140.799 94.2145 138.748 95.8684 136.343 95.8684C134.376 95.8684 132.756 94.5495 132.672 92.0791C132.513 87.6478 136.649 83.5375 140.034 83.5375C141.487 83.5375 142.835 84.1725 142.891 85.7427C143.016 89.2668 138.088 90.3415 134.841 90.4182C134.737 90.7881 134.695 91.158 134.716 91.7162C134.772 93.1747 135.648 94.403 137.469 94.403C139.04 94.403 140.611 93.1329 141.41 91.8837V91.8837Z" fill="white"/>
<path d="M121.224 85.4078C121.572 85.3589 122.135 85.2961 122.378 85.2961C122.747 85.2961 123.094 85.3659 123.115 85.7358C123.122 85.9521 122.733 87.5223 122.649 87.8851L121.864 91.3604C121.544 92.784 121.203 94.2704 120.897 95.4498H122.913L124.046 89.9438C127.501 86.3289 128.836 85.1496 129.649 85.1496C130.018 85.1496 130.268 85.345 130.289 85.7846C130.31 86.4197 129.913 87.8642 129.781 88.2829L128.627 92.2955C128.363 93.1958 128.169 94.0122 128.189 94.5915C128.224 95.4707 128.752 95.8615 129.545 95.8615C131.019 95.8615 132.089 94.3193 133.021 92.805L132.75 92.3095C132.374 92.9166 131.498 94.2495 130.81 94.2495C130.595 94.2495 130.386 94.103 130.379 93.7401C130.358 93.2725 130.553 92.5677 130.692 92.1001L131.978 87.3966C132.325 86.0986 132.485 85.2682 132.478 84.8216C132.444 83.9423 131.936 83.5306 131.151 83.5306C129.823 83.5306 128.064 84.5076 124.331 88.8133H124.276L124.749 86.7127C125.006 85.5613 125.256 84.361 125.492 83.5306C124.199 83.9981 122.35 84.5215 121.21 84.7448L121.224 85.4078Z" fill="white"/>
<defs>
<linearGradient id="paint0_linear" x1="-2.81954e-06" y1="-3.5" x2="163" y2="163" gradientUnits="userSpaceOnUse">
<stop stop-color="#00BBFC"/>
<stop offset="1" stop-color="#005EBD"/>
</linearGradient>
</defs>
</svg>
