<svg width="83" height="83" viewBox="0 0 83 83" fill="none" xmlns="http://www.w3.org/2000/svg">
<g filter="url(#filter0_b)">
<rect width="83" height="83" rx="10" fill="url(#paint0_linear)"/>
</g>
<path d="M61.2346 25.2075C60.7028 23.4064 59.5992 21.8269 58.0901 20.7072C56.581 19.5875 54.7483 18.9884 52.8685 19.0002C50.6899 19.0021 48.5907 19.818 46.9838 21.2875C45.3768 22.757 44.3783 24.7737 44.1845 26.9413H38.8182C38.6217 24.7715 37.6198 22.7535 36.0095 21.284C34.3991 19.8146 32.2967 18.9999 30.1156 19.0002C28.2383 18.991 26.4088 19.5914 24.9028 20.7109C23.3967 21.8305 22.2957 23.4086 21.7655 25.2075L15.1113 47.358C15.0384 47.6047 15.0009 47.8605 15 48.1177V50.7648C15.0042 54.2741 16.4019 57.6385 18.8864 60.1198C21.3709 62.601 24.7394 63.9965 28.2527 64C30.8276 63.9956 33.3456 63.2423 35.499 61.8321C37.6524 60.4219 39.3481 58.4158 40.379 56.0589H42.621C43.6519 58.4158 45.3476 60.4219 47.501 61.8321C49.6544 63.2423 52.1724 63.9956 54.7474 64C58.2611 63.9965 61.6299 62.6007 64.1145 60.1188C66.5991 57.637 67.9965 54.2719 68 50.7621V48.1177C68 47.8583 67.9603 47.6042 67.8887 47.358L61.2346 25.2075ZM28.2527 58.7059C26.1448 58.7031 24.124 57.8656 22.6333 56.3771C21.1426 54.8885 20.3035 52.8703 20.3 50.7648C20.3 50.5636 20.345 50.3756 20.3583 50.1771C20.5033 48.1834 21.397 46.3179 22.8603 44.9543C24.3237 43.5907 26.2488 42.8297 28.25 42.8236C30.3585 42.8236 32.3806 43.6603 33.8715 45.1495C35.3624 46.6388 36.2 48.6586 36.2 50.7648V50.7886C36.1909 52.8893 35.35 54.901 33.8609 56.3844C32.3719 57.8678 30.3557 58.7024 28.2527 58.7059ZM54.7474 58.7059C52.6443 58.7024 50.6281 57.8678 49.1391 56.3844C47.65 54.901 46.8091 52.8893 46.8 50.7886V50.7648C46.7998 49.7219 47.0053 48.6892 47.4047 47.7257C47.804 46.7622 48.3895 45.8867 49.1276 45.1491C50.6182 43.6596 52.6402 42.8226 54.7487 42.8223C56.8571 42.8219 58.8794 43.6583 60.3706 45.1473C61.8617 46.6363 62.6996 48.656 62.7 50.7621C62.6972 52.8681 61.8584 54.887 60.3676 56.3761C58.8768 57.8653 56.8557 58.7031 54.7474 58.7059Z" fill="white"/>
<defs>
<filter id="filter0_b" x="-134" y="-134" width="351" height="351" filterUnits="userSpaceOnUse" color-interpolation-filters="sRGB">
<feFlood flood-opacity="0" result="BackgroundImageFix"/>
<feGaussianBlur in="BackgroundImage" stdDeviation="67"/>
<feComposite in2="SourceAlpha" operator="in" result="effect1_backgroundBlur"/>
<feBlend mode="normal" in="SourceGraphic" in2="effect1_backgroundBlur" result="shape"/>
</filter>
<linearGradient id="paint0_linear" x1="3.5" y1="-2.28477e-07" x2="80" y2="84.5" gradientUnits="userSpaceOnUse">
<stop stop-color="#05D96B"/>
<stop offset="1" stop-color="#009949"/>
</linearGradient>
</defs>
</svg>
