<svg width="163" height="163" viewBox="0 0 163 163" fill="none" xmlns="http://www.w3.org/2000/svg">
<rect width="163" height="163" rx="10" fill="#4E00E0"/>
<path fill-rule="evenodd" clip-rule="evenodd" d="M123.205 98.0842L127.11 104.858C127.461 105.459 127.32 106.229 126.759 106.654C119.691 112.009 110.817 115.189 101.175 115.178C93.6032 115.169 86.5095 113.199 80.3987 109.752C79.725 109.371 79.5041 108.523 79.8852 107.861L83.7489 101.167C84.1432 100.483 85.0347 100.235 85.731 100.629C90.2767 103.201 95.5546 104.68 101.193 104.687C108.725 104.695 115.626 102.071 120.989 97.7014C121.693 97.1282 122.751 97.3083 123.205 98.0842" fill="white"/>
<path fill-rule="evenodd" clip-rule="evenodd" d="M65.4015 49.0863C65.3953 48.3608 64.7709 47.7908 64.0273 47.8237C61.9199 47.9184 59.7929 48.1859 57.6638 48.6397C49.7999 50.3159 43.0482 54.2744 37.9613 59.6643C37.2947 60.3701 37.3327 61.3981 38.0475 62.0155L43.0903 67.0812C43.8472 67.7356 45.0765 67.6533 45.8068 66.9227C49.5339 63.1988 54.3876 60.4576 59.9932 59.263C61.4084 58.9615 62.8226 58.769 64.2245 58.6795C64.8921 58.6373 65.4077 58.093 65.4015 57.4406V49.0863Z" fill="white"/>
<path fill-rule="evenodd" clip-rule="evenodd" d="M58.6381 67.1936C70.9245 67.1936 80.8887 76.9052 80.8887 88.8805C80.8887 100.856 70.9245 110.582 58.6381 110.582C46.3353 110.582 36.3721 100.856 36.3721 88.8805C36.3721 76.9052 46.3353 67.1936 58.6381 67.1936ZM60.4209 97.8576C65.5355 97.8576 69.6806 93.8168 69.6806 88.8324C69.6806 83.848 65.5355 79.8072 60.4209 79.8072C55.3073 79.8072 51.1611 83.848 51.1611 88.8324C51.1611 93.8168 55.3073 97.8576 60.4209 97.8576Z" fill="white"/>
<path fill-rule="evenodd" clip-rule="evenodd" d="M100.932 49.0984C114.83 49.0984 126.099 60.0818 126.099 73.6274C126.099 87.173 114.83 98.1728 100.932 98.1728C87.0177 98.1728 75.748 87.173 75.748 73.6274C75.748 60.0818 87.0177 49.0984 100.932 49.0984ZM99.2223 84.3112C104.919 84.3112 109.538 79.8094 109.538 74.257C109.538 68.7046 104.919 64.2028 99.2213 64.2028C93.5244 64.2028 88.9058 68.7046 88.9058 74.257C88.9058 79.8094 93.5244 84.3112 99.2223 84.3112Z" fill="white"/>
</svg>
