<svg width="24" height="24" viewBox="0 0 24 24" fill="none" xmlns="http://www.w3.org/2000/svg">
<path fill-rule="evenodd" clip-rule="evenodd" d="M22.5 12C22.5 14.7848 21.3938 17.4555 19.4246 19.4246C17.4555 21.3938 14.7848 22.5 12 22.5C9.21523 22.5 6.54451 21.3938 4.57538 19.4246C2.60625 17.4555 1.5 14.7848 1.5 12C1.5 9.21523 2.60625 6.54451 4.57538 4.57538C6.54451 2.60625 9.21523 1.5 12 1.5C14.7848 1.5 17.4555 2.60625 19.4246 4.57538C21.3938 6.54451 22.5 9.21523 22.5 12ZM0 12C0 15.1826 1.26428 18.2348 3.51472 20.4853C5.76515 22.7357 8.8174 24 12 24C15.1826 24 18.2348 22.7357 20.4853 20.4853C22.7357 18.2348 24 15.1826 24 12C24 8.8174 22.7357 5.76516 20.4853 3.51472C18.2348 1.26428 15.1826 0 12 0C8.8174 0 5.76515 1.26428 3.51472 3.51472C1.26428 5.76516 0 8.8174 0 12ZM6.75 11.25C6.55109 11.25 6.36032 11.329 6.21967 11.4697C6.07902 11.6103 6 11.8011 6 12C6 12.1989 6.07902 12.3897 6.21967 12.5303C6.36032 12.671 6.55109 12.75 6.75 12.75H15.4395L12.219 15.969C12.1493 16.0387 12.094 16.1215 12.0562 16.2126C12.0185 16.3037 11.9991 16.4014 11.9991 16.5C11.9991 16.5986 12.0185 16.6963 12.0562 16.7874C12.094 16.8785 12.1493 16.9613 12.219 17.031C12.2887 17.1007 12.3715 17.156 12.4626 17.1938C12.5537 17.2315 12.6514 17.2509 12.75 17.2509C12.8486 17.2509 12.9463 17.2315 13.0374 17.1938C13.1285 17.156 13.2113 17.1007 13.281 17.031L17.781 12.531C17.8508 12.4613 17.9063 12.3786 17.9441 12.2874C17.9819 12.1963 18.0013 12.0987 18.0013 12C18.0013 11.9013 17.9819 11.8037 17.9441 11.7125C17.9063 11.6214 17.8508 11.5387 17.781 11.469L13.281 6.969C13.1402 6.82817 12.9492 6.74905 12.75 6.74905C12.5508 6.74905 12.3598 6.82817 12.219 6.969C12.0782 7.10983 11.9991 7.30084 11.9991 7.5C11.9991 7.69916 12.0782 7.89017 12.219 8.031L15.4395 11.25H6.75Z" fill="white"/>
</svg>
