<svg width="166" height="166" viewBox="0 0 166 166" fill="none" xmlns="http://www.w3.org/2000/svg">
<path fill-rule="evenodd" clip-rule="evenodd" d="M91.852 133H132.987C133.838 133 134.674 132.782 135.418 132.366C137.839 131.013 138.713 127.939 137.37 125.5L87.8825 35.6015C87.4274 34.7748 86.7511 34.0934 85.9307 33.6349C83.5101 32.2819 80.4593 33.1624 79.1166 35.6015L29.6291 125.5C29.2165 126.249 29 127.092 29 127.95C29 130.739 31.244 133 34.012 133H75.1471L79.1166 125.789C80.4593 123.35 83.5101 122.469 85.9307 123.822C86.7511 124.281 87.4274 124.962 87.8825 125.789L91.852 133Z" fill="white"/>
<path d="M39.0586 66.9888C39.0586 74.0155 43.2545 80.0535 49.2567 82.6922L65.6427 52.8753C62.9101 50.9779 59.5992 49.8672 56.0311 49.8672C46.6575 49.8672 39.0586 57.5328 39.0586 66.9888Z" fill="white"/>
</svg>
