<svg width="278" height="100" viewBox="0 0 278 100" fill="none" xmlns="http://www.w3.org/2000/svg">
<path d="M188.332 72.3217C188.317 72.3374 188.301 72.3374 188.301 72.3531C176.479 80.7515 162.484 89.5738 147.426 98.8356L146.832 99.181C146.628 99.3223 146.581 99.6048 146.722 99.8089C146.863 100.013 147.144 100.06 147.348 99.9188L147.848 99.6519C160.623 92.9646 175.291 85.0214 190.052 76.8741C190.13 76.827 190.209 76.7799 190.287 76.7485C189.474 75.3985 188.801 73.9229 188.332 72.3217ZM265.892 9.29415C247.268 -11.333 127.41 7.22201 76.4494 18.399L75.261 18.6502C75.0108 18.6973 74.8545 18.9327 74.9014 19.1682C74.9483 19.4194 75.1828 19.5763 75.4174 19.5293L76.5902 19.2938C118.81 11.743 206.627 1.28816 225.517 20.0944C231.287 25.8399 229.911 33.2179 223.218 41.946C226.815 44.2693 229.379 47.927 230.536 52.4951C256.65 35.1017 274.179 18.4775 265.892 9.29415Z" fill="white"/>
<path d="M195.87 66.9059C196.104 74.1584 200.686 80.1079 206.643 80.1079C218.199 80.1079 223.125 65.8541 222.781 56.3411C222.531 49.0729 217.84 43.1391 211.882 43.1391C201.952 43.1234 195.526 57.3144 195.87 66.9059ZM189.771 66.5134C189.349 54.1277 199.013 41.4594 213.055 41.4594C222.437 41.4594 228.582 47.7386 228.926 57.3615C229.38 70.4222 220.341 82.4155 205.658 82.4155C196.245 82.4155 190.099 76.152 189.771 66.5134Z" fill="white"/>
<path d="M56.7837 63.2483C56.2833 63.4367 55.6422 63.6251 54.829 63.7978C54.0315 63.9861 52.5617 64.2373 50.435 64.5827C48.9651 64.8181 47.9487 65.1164 47.3702 65.5403C46.8229 65.9484 46.4945 66.435 46.4007 67.0473C46.2912 67.6909 46.4945 68.1932 47.0418 68.6014C47.6047 68.9938 48.543 69.1979 49.8721 69.1979C50.8729 69.1979 51.8424 69.0409 52.7806 68.7269C53.7344 68.413 54.5476 67.9891 55.1574 67.4554C55.6109 67.063 55.9393 66.5606 56.1894 65.9484C56.3458 65.5403 56.5491 64.6455 56.7837 63.2483ZM68.9805 55.6348C68.9336 56.7651 68.7303 57.7697 68.4332 59.5122L66.3691 71.1444C66.1971 72.1805 66.5724 72.9811 67.5263 73.5462L67.4637 74.0015L55.6422 73.9858L55.5327 71.0346C53.8126 72.0706 51.7329 72.9497 49.8565 73.4677C47.98 73.9544 46.4632 74.1585 44.1959 74.1585C40.3804 74.1585 38.1913 73.766 36.6745 72.4317C35.142 71.066 34.3915 70.1555 34.4696 68.2717C34.5322 67.1885 35.0951 65.7914 35.8926 64.8181C36.7057 63.8292 37.8316 63.1856 39.0357 62.6047C40.2553 62.0239 41.6939 61.6 43.7737 61.2704C45.869 60.925 48.7775 60.5954 52.6711 60.2657C54.7196 60.093 55.9705 59.6221 56.5491 59.3866C57.3622 59.0727 57.6906 58.7116 57.8001 58.0523C58.019 56.8592 57.6437 56.1685 56.0487 55.8546C51.7954 55.0069 43.8049 56.404 39.6924 57.4244L41.9285 51.3649C47.3545 50.5643 52.4366 50.062 57.8001 50.062C66.3535 50.062 69.0743 52.4952 68.9805 55.6348Z" fill="white"/>
<path d="M103.256 73.9856L107.353 50.7368H118.674L114.578 73.9856H103.256ZM107.979 45.3524C108.323 43.4373 111.325 41.8989 114.671 41.8989C118.033 41.8989 120.488 43.453 120.16 45.3524C119.8 47.2676 116.814 48.8217 113.436 48.8217C110.09 48.8217 107.65 47.2676 107.979 45.3524Z" fill="white"/>
<path d="M158.872 63.2953C158.356 63.468 157.7 63.6564 156.902 63.8447C156.105 64.0331 154.635 64.2686 152.508 64.6139C151.054 64.8494 150.022 65.1477 149.459 65.5715C148.912 65.964 148.599 66.4663 148.474 67.0628C148.349 67.7064 148.583 68.2245 149.115 68.6169C149.693 69.0094 150.632 69.1978 151.961 69.1978C152.946 69.1978 153.915 69.0565 154.869 68.7582C155.839 68.4286 156.636 68.0204 157.262 67.4867C157.7 67.0942 158.028 66.5762 158.263 65.9797C158.419 65.5872 158.622 64.6924 158.872 63.2953ZM171.069 55.6661C171.022 56.812 170.819 57.8167 170.506 59.5435L168.458 71.1914C168.286 72.2118 168.661 73.0281 169.615 73.5932L169.552 74.0013L157.731 74.017L157.637 71.0501C155.917 72.1019 153.822 72.981 151.961 73.4833C150.084 73.9857 148.568 74.1897 146.269 74.1897C142.454 74.1897 140.28 73.813 138.763 72.4629C137.215 71.0815 136.48 70.1867 136.558 68.303C136.605 67.2041 137.168 65.807 137.981 64.8494C138.794 63.8447 139.92 63.2168 141.14 62.636C142.36 62.0552 143.798 61.6313 145.862 61.286C147.958 60.9563 150.882 60.6109 154.775 60.2813C156.808 60.1086 158.059 59.6534 158.638 59.4179C159.467 59.1039 159.779 58.7429 159.904 58.0679C160.108 56.8905 159.748 56.1998 158.169 55.8701C153.884 55.0225 145.925 56.4196 141.812 57.4399L144.033 51.3805C149.475 50.5799 154.541 50.0776 159.904 50.0776C168.427 50.0933 171.147 52.5422 171.069 55.6661Z" fill="white"/>
<path d="M32.9367 65.6342C29.2464 66.372 27.1823 66.6546 23.5389 66.6546C18.1285 66.6546 13.8283 63.9545 14.0628 59.0097C14.2348 55.7131 18.1128 48.7746 27.9798 48.7746C31.0915 48.7746 33.5153 49.324 36.7834 51.1921L38.222 43.1233C33.7811 41.4436 30.8413 41.1924 27.0259 41.2238C14.0785 41.3651 1.66269 47.2676 0.114624 59.2765C-1.44908 71.4739 13.3904 74.535 19.9736 74.5036C23.7734 74.4879 27.7296 74.3309 31.4199 73.9542L32.9367 65.6342Z" fill="white"/>
<path d="M124.914 50.6114L125.727 45.8706L137.564 43.2804L136.297 50.5957H142.099L141.004 55.2737L135.375 55.258L131.95 73.9543C131.95 73.9543 120.551 73.8758 120.504 73.9543L123.913 55.3051H119.628L120.504 50.5957H124.914V50.6114Z" fill="white"/>
<path d="M188.072 41.8668L182.568 73.9692L171.044 73.9849L176.845 41.5528L188.072 41.8668Z" fill="white"/>
<path d="M88.2756 56.184C86.7901 56.184 85.4453 56.6393 84.2569 57.534C83.0685 58.4445 82.3179 59.7632 82.0208 61.5056C81.6611 63.5307 81.8801 64.9906 82.6775 65.8854C83.4907 66.7802 84.6478 67.2354 86.1802 67.2354C87.2123 67.2354 88.2756 67.047 89.0574 66.6546C90.0269 66.1366 90.6993 65.6028 91.2779 64.7394C91.9034 63.8446 92.3099 62.84 92.5289 61.6783C92.8572 59.8417 92.5758 58.4759 91.7314 57.5654C90.9026 56.655 89.7611 56.184 88.2756 56.184ZM67.666 82.0072L73.1859 50.8624H83.131L82.3648 54.834C83.2248 53.6409 84.6009 52.6677 86.5086 51.8828C88.432 51.0979 90.5899 50.517 92.9354 50.517C95.5312 50.517 97.1261 50.6583 99.0651 51.663C100.988 52.6834 102.349 54.159 103.068 56.0741C103.819 57.9579 103.975 60.0928 103.569 62.4004C102.896 66.2464 101.035 69.2605 97.9705 71.4896C94.937 73.7187 92.2005 74.2995 88.3069 74.3152C86.9308 74.3152 85.7737 74.1739 84.8198 73.9385C83.8816 73.6873 83.131 73.389 82.5681 73.028C82.0208 72.6669 81.4422 72.1489 80.7073 71.3326L78.8621 82.0072H67.666Z" fill="white"/>
<path d="M273.163 59.0411C273.101 57.1731 272.163 55.9015 270.239 55.9015C265.595 55.9015 260.654 65.0378 259.809 68.7111C267.425 68.7268 273.351 64.1744 273.163 59.0411ZM274.164 73.3577L275.055 73.9699C272.788 78.6008 268.175 82.3213 262.765 82.3213C258.339 82.3213 254.696 79.3544 254.508 73.7973C254.149 63.829 263.453 54.5829 271.068 54.5829C274.336 54.5829 277.37 56.0114 277.495 59.5435C277.776 67.471 266.69 69.8885 259.387 70.0611C259.153 70.8931 259.059 71.7251 259.106 72.981C259.231 76.2618 261.201 79.0247 265.298 79.0247C268.832 79.0247 272.366 76.1677 274.164 73.3577Z" fill="white"/>
<path d="M228.754 58.7901C229.536 58.6802 230.802 58.5389 231.349 58.5389C232.178 58.5389 232.96 58.6959 233.007 59.5279C233.023 60.0145 232.147 63.5466 231.959 64.3629L230.192 72.1805C229.473 75.3829 228.707 78.7266 228.019 81.3795H232.554L235.102 68.9938C242.874 60.8622 245.876 58.2093 247.706 58.2093C248.535 58.2093 249.097 58.6488 249.144 59.6378C249.191 61.0663 248.3 64.3158 248.003 65.2577L245.407 74.284C244.813 76.3091 244.375 78.1457 244.422 79.4487C244.5 81.4266 245.689 82.3057 247.471 82.3057C250.786 82.3057 253.194 78.8364 255.29 75.43L254.68 74.3154C253.835 75.6811 251.865 78.6795 250.317 78.6795C249.832 78.6795 249.363 78.3498 249.348 77.5335C249.301 76.4817 249.739 74.8962 250.051 73.8445L252.944 63.264C253.726 60.3442 254.086 58.4761 254.07 57.4715C253.992 55.4935 252.85 54.5673 251.083 54.5673C248.097 54.5673 244.141 56.765 235.743 66.4507H235.618L236.682 61.7256C237.26 59.1354 237.823 56.4354 238.355 54.5673C235.446 55.6191 231.287 56.7964 228.722 57.2988L228.754 58.7901Z" fill="white"/>
</svg>
