<svg width="166" height="166" viewBox="0 0 166 166" fill="none" xmlns="http://www.w3.org/2000/svg">
<path fill-rule="evenodd" clip-rule="evenodd" d="M144.918 107.622L150.715 117.679C151.237 118.571 151.026 119.714 150.194 120.344C139.7 128.296 126.526 133.017 112.21 133C100.969 132.988 90.4372 130.062 81.3646 124.944C80.3644 124.379 80.0365 123.12 80.6022 122.136L86.3385 112.199C86.924 111.183 88.2476 110.815 89.2814 111.4C96.0301 115.219 103.866 117.414 112.237 117.425C123.42 117.437 133.665 113.542 141.628 107.054C142.672 106.203 144.244 106.47 144.918 107.622" fill="white"/>
<path fill-rule="evenodd" clip-rule="evenodd" d="M59.0984 34.8765C59.0893 33.7995 58.1622 32.9531 57.0582 33.002C53.9293 33.1426 50.7715 33.5398 47.6106 34.2135C35.9352 36.7021 25.9112 42.5791 18.3589 50.5812C17.3693 51.6292 17.4258 53.1554 18.487 54.072L25.9738 61.5929C27.0975 62.5645 28.9227 62.4423 30.0068 61.3576C35.5403 55.8289 42.7465 51.7591 51.0688 49.9854C53.17 49.5378 55.2696 49.2521 57.351 49.1192C58.3421 49.0566 59.1075 48.2484 59.0984 47.2799V34.8765Z" fill="white"/>
<path fill-rule="evenodd" clip-rule="evenodd" d="M49.0575 61.7598C67.2987 61.7598 82.0922 76.1782 82.0922 93.9575C82.0922 111.737 67.2987 126.177 49.0575 126.177C30.792 126.177 16 111.737 16 93.9575C16 76.1782 30.792 61.7598 49.0575 61.7598ZM51.7049 107.286C59.2984 107.286 65.4524 101.286 65.4524 93.8861C65.4524 86.4859 59.2984 80.4867 51.7049 80.4867C44.113 80.4867 37.9574 86.4859 37.9574 93.8861C37.9574 101.286 44.113 107.286 51.7049 107.286Z" fill="white"/>
<path fill-rule="evenodd" clip-rule="evenodd" d="M111.849 34.8945C132.483 34.8945 149.215 51.2012 149.215 71.3118C149.215 91.4224 132.483 107.753 111.849 107.753C91.1915 107.753 74.46 91.4224 74.46 71.3118C74.46 51.2012 91.1915 34.8945 111.849 34.8945ZM109.312 87.1738C117.77 87.1738 124.627 80.4901 124.627 72.2466C124.627 64.0032 117.77 57.3195 109.31 57.3195C100.852 57.3195 93.9952 64.0032 93.9952 72.2466C93.9952 80.4901 100.852 87.1738 109.312 87.1738Z" fill="white"/>
</svg>
