<svg width="1440" height="372" viewBox="0 0 1440 372" fill="none" xmlns="http://www.w3.org/2000/svg">
<mask id="mask0" mask-type="alpha" maskUnits="userSpaceOnUse" x="0" y="0" width="1440" height="372">
<rect width="1440" height="372" fill="#C4C4C4"/>
</mask>
<g mask="url(#mask0)">
<path d="M1066.15 99.7726C807.527 -65.7384 422.802 596.305 265.549 439.193V589.388H1508.74V288.998C1426.81 291.469 1351.82 282.591 1066.15 99.7726Z" fill="url(#paint0_linear)"/>
<ellipse cx="1160.65" cy="147.477" rx="43.5165" ry="43.4774" fill="url(#paint1_linear)" stroke="white" stroke-width="6"/>
<ellipse cx="796.846" cy="141.444" rx="13.8462" ry="13.8337" fill="#42D2EB" stroke="white" stroke-width="6"/>
<path d="M1224.93 156.406C1230.96 156.406 1235.85 151.526 1235.85 145.501C1235.85 139.475 1230.96 134.596 1224.93 134.596C1218.91 134.596 1214.02 139.475 1214.02 145.501C1214.02 151.526 1218.91 156.406 1224.93 156.406Z" fill="#82E5A0" stroke="white" stroke-width="6"/>
<path d="M241.319 76.0576C10.879 76.0576 -133.517 240.086 -133.517 459.944L-110.769 688.2H1606.15V343.839C1463.24 486.623 1274.84 121.511 1052.31 343.839C829.78 566.167 471.758 76.0576 241.319 76.0576Z" fill="url(#paint2_linear)"/>
<ellipse cx="1163.49" cy="271.468" rx="23.489" ry="23.4679" fill="#463DE8" stroke="white" stroke-width="6"/>
<ellipse rx="40.0393" ry="40.0347" transform="matrix(0.751736 0.659464 -0.660133 0.751149 251.714 69.1151)" fill="#39B2F5" stroke="white" stroke-width="6"/>
<path d="M294.012 19.1007C298.338 22.8957 304.925 22.4687 308.724 18.1459C312.523 13.8231 312.095 7.24239 307.769 3.44741C303.443 -0.347559 296.856 0.079371 293.057 4.4022C289.258 8.72502 289.687 15.3057 294.012 19.1007Z" fill="#39B2F5" stroke="white" stroke-width="7"/>
<ellipse rx="13.8407" ry="13.8391" transform="matrix(0.751736 0.659464 -0.660133 0.751149 330.119 57.0266)" fill="#39B2F5" stroke="white" stroke-width="6"/>
</g>
<defs>
<linearGradient id="paint0_linear" x1="542.472" y1="326.547" x2="1284.08" y2="589.807" gradientUnits="userSpaceOnUse">
<stop stop-color="#0BC4F7" stop-opacity="0.82"/>
<stop offset="1" stop-color="#9EEE81"/>
</linearGradient>
<linearGradient id="paint1_linear" x1="1110.7" y1="147.477" x2="1160.61" y2="190.999" gradientUnits="userSpaceOnUse">
<stop stop-color="#6DDFB8"/>
<stop offset="1" stop-color="#7CE4A7"/>
</linearGradient>
<linearGradient id="paint2_linear" x1="201.264" y1="196.608" x2="1045.99" y2="688.859" gradientUnits="userSpaceOnUse">
<stop stop-color="#39B2F5"/>
<stop offset="1" stop-color="#4730E6"/>
</linearGradient>
</defs>
</svg>
