<svg width="40" height="41" viewBox="0 0 40 41" fill="none" xmlns="http://www.w3.org/2000/svg">
<g clip-path="url(#clip0)">
<path d="M29.991 22.0717C29.7052 21.7875 29.3773 21.5492 29.0188 21.3651L28.5743 19.8584L19.6721 19.7962L19.331 21.0084C18.7567 21.1415 18.2248 21.4157 17.7832 21.8062L13.771 17.4128C13.312 17.6162 12.9219 17.9484 12.648 18.3691C12.374 18.7897 12.228 19.2808 12.2276 19.7828V20.8495L7.7832 25.4784L7.80098 27.9095L18.8943 39.8306C18.8943 39.8306 30.581 22.844 30.6088 22.8773C30.4676 22.6284 30.041 22.0962 29.991 22.0717Z" fill="#222222"/>
<path fill-rule="evenodd" clip-rule="evenodd" d="M19.9996 20.9427H27.3118C27.9069 20.9468 28.4925 21.0919 29.0207 21.366L29.2662 20.0393L31.5607 7.63821C31.5607 7.63821 31.7696 5.42598 29.5573 5.21709C27.344 5.00932 27.1351 7.22154 27.1351 7.22154L24.8451 18.9015C24.3628 18.85 23.8794 18.8104 23.3951 18.7827L19.954 5.92821C19.954 5.92821 19.4918 3.75487 17.3185 4.21709C15.1451 4.67821 15.6073 6.85265 15.6073 6.85265L19.244 20.7015L19.3251 21.0104C19.5429 20.966 19.7685 20.9427 19.9996 20.9427ZM10.0929 18.7204H9.90623C8.72957 18.7204 7.77734 19.6738 7.77734 20.8504V25.4793C7.7772 25.759 7.83216 26.0359 7.93908 26.2943C8.046 26.5528 8.20279 26.7876 8.40049 26.9854C8.59819 27.1832 8.83292 27.3401 9.09129 27.4472C9.34965 27.5542 9.62657 27.6093 9.90623 27.6093H10.0929C10.3726 27.6093 10.6495 27.5542 10.9078 27.4472C11.1662 27.3401 11.4009 27.1832 11.5986 26.9854C11.7963 26.7876 11.9531 26.5528 12.0601 26.2943C12.167 26.0359 12.2219 25.759 12.2218 25.4793V20.8504C12.2218 19.6738 11.2696 18.7204 10.0929 18.7204ZM17.5307 22.0782L17.5929 22.0093C17.6188 21.9825 17.643 21.954 17.6673 21.9255C17.7023 21.8844 17.7373 21.8432 17.7773 21.8071V18.7204C17.7773 18.1311 17.5432 17.5658 17.1265 17.1491C16.7097 16.7323 16.1445 16.4982 15.5551 16.4982C15.2057 16.4988 14.8613 16.582 14.5502 16.7411C14.2391 16.9003 13.9701 17.1307 13.7651 17.4138C13.4962 17.7815 13.3329 18.2304 13.3329 18.7204V25.3871C13.3329 25.9765 13.567 26.5417 13.9838 26.9584C14.4005 27.3752 14.9658 27.6093 15.5551 27.6093C15.8692 27.6079 16.1794 27.5389 16.4645 27.407C16.7496 27.2751 17.0029 27.0834 17.2073 26.8449C17.3171 26.7248 17.4135 26.5933 17.4951 26.4527C17.0285 25.9171 16.7351 25.2349 16.6862 24.4815C16.6841 24.4553 16.6807 24.4293 16.6773 24.4033C16.6718 24.3613 16.6662 24.3193 16.6662 24.276C16.6713 23.4614 16.9794 22.6779 17.5307 22.0782ZM11.6151 28.3301C11.1399 28.5866 10.6084 28.7207 10.0684 28.7206H9.93062C9.14923 28.7178 8.39532 28.432 7.8084 27.9162L7.79285 27.9051C7.95062 35.1306 13.8473 40.9428 21.1106 40.9428C27.4606 40.9428 32.6784 35.3873 32.6784 30.044C32.754 29.6884 32.3362 27.9817 32.2217 27.6095L31.014 23.6262C30.7328 22.7162 29.8417 22.054 28.8884 22.054H19.9995C19.4101 22.054 18.8449 22.2881 18.4282 22.7048C18.0114 23.1216 17.7773 23.6868 17.7773 24.2762C17.7773 24.8655 18.0114 25.4308 18.4282 25.8475C18.8449 26.2643 19.4101 26.4984 19.9995 26.4984H26.1106C26.9128 26.4984 26.764 27.6973 25.9717 27.6095C24.9562 27.6095 24.0095 28.0195 23.1962 28.7206C21.6173 30.0817 20.5551 32.5562 20.5551 35.3873C20.5551 35.5346 20.4965 35.6759 20.3923 35.7801C20.2882 35.8843 20.1469 35.9428 19.9995 35.9428C19.8522 35.9428 19.7109 35.8843 19.6067 35.7801C19.5025 35.6759 19.444 35.5346 19.444 35.3873C19.444 32.7273 20.3162 30.3506 21.6806 28.7206C22.0168 28.3086 22.3985 27.9358 22.8184 27.6095H19.9995C19.0438 27.6095 18.6857 27.3736 18.4621 27.2263C18.4258 27.2023 18.393 27.1807 18.3617 27.1628L18.3651 27.1662C18.2362 27.3695 18.0684 27.5395 17.8995 27.7084C16.6406 28.964 14.5862 29.0428 13.2695 27.804C13.0917 27.6362 12.9273 27.4551 12.7906 27.2517C12.4943 27.7031 12.0903 28.0737 11.6151 28.3301Z" fill="white"/>
</g>
<defs>
<clipPath id="clip0">
<rect width="40" height="40" fill="white" transform="translate(0 0.942871)"/>
</clipPath>
</defs>
</svg>
