<svg width="40" height="40" viewBox="0 0 40 40" fill="none" xmlns="http://www.w3.org/2000/svg">
<path d="M29.991 21.1286C29.7052 20.8444 29.3773 20.606 29.0188 20.4219L28.5743 18.9153L19.6721 18.8531L19.331 20.0653C18.7567 20.1984 18.2248 20.4726 17.7832 20.8631L13.771 16.4697C13.312 16.6731 12.9219 17.0053 12.648 17.4259C12.374 17.8466 12.228 18.3377 12.2276 18.8397V19.9064L7.7832 24.5353L7.80098 26.9664L18.8943 38.8875C18.8943 38.8875 30.581 21.9008 30.6088 21.9342C30.4676 21.6853 30.041 21.1531 29.991 21.1286Z" fill="white"/>
<path fill-rule="evenodd" clip-rule="evenodd" d="M20.0001 20H27.3123C27.9073 20.0042 28.493 20.1492 29.0212 20.4234L29.2667 19.0967L31.5612 6.69558C31.5612 6.69558 31.77 4.48336 29.5578 4.27447C27.3445 4.06669 27.1356 6.27891 27.1356 6.27891L24.8456 17.9589C24.3633 17.9074 23.8798 17.8678 23.3956 17.84L19.9545 4.98558C19.9545 4.98558 19.4923 2.81225 17.3189 3.27447C15.1456 3.73558 15.6078 5.91002 15.6078 5.91002L19.2445 19.7589L19.3256 20.0678C19.5434 20.0234 19.7689 20 20.0001 20ZM10.0934 17.7778H9.90672C8.73005 17.7778 7.77783 18.7311 7.77783 19.9078V24.5367C7.77769 24.8164 7.83264 25.0933 7.93957 25.3517C8.04649 25.6101 8.20328 25.845 8.40098 26.0428C8.59868 26.2406 8.83341 26.3975 9.09177 26.5045C9.35013 26.6116 9.62706 26.6667 9.90672 26.6667H10.0934C10.3731 26.6667 10.65 26.6116 10.9083 26.5045C11.1667 26.3975 11.4014 26.2406 11.5991 26.0428C11.7968 25.845 11.9536 25.6101 12.0605 25.3517C12.1675 25.0933 12.2224 24.8164 12.2223 24.5367V19.9078C12.2223 18.7311 11.2701 17.7778 10.0934 17.7778ZM17.5312 21.1356L17.5934 21.0667C17.6193 21.0399 17.6435 21.0114 17.6678 20.9829C17.7028 20.9417 17.7378 20.9006 17.7778 20.8645V17.7778C17.7778 17.1884 17.5437 16.6232 17.127 16.2065C16.7102 15.7897 16.145 15.5556 15.5556 15.5556C15.2062 15.5561 14.8618 15.6394 14.5507 15.7985C14.2396 15.9576 13.9706 16.1881 13.7656 16.4711C13.4967 16.8389 13.3334 17.2878 13.3334 17.7778V24.4445C13.3334 25.0338 13.5675 25.5991 13.9843 26.0158C14.401 26.4326 14.9662 26.6667 15.5556 26.6667C15.8697 26.6653 16.1799 26.5963 16.465 26.4644C16.7501 26.3325 17.0034 26.1408 17.2078 25.9022C17.3175 25.7822 17.414 25.6507 17.4956 25.51C17.0289 24.9745 16.7356 24.2922 16.6867 23.5389C16.6846 23.5126 16.6812 23.4867 16.6778 23.4607C16.6722 23.4187 16.6667 23.3766 16.6667 23.3334C16.6718 22.5188 16.9799 21.7353 17.5312 21.1356ZM11.6156 27.3875C11.1404 27.6439 10.6089 27.7781 10.0689 27.778H9.93111C9.14972 27.7752 8.3958 27.4894 7.80889 26.9735L7.79334 26.9624C7.95111 34.188 13.8478 40.0002 21.1111 40.0002C27.4611 40.0002 32.6789 34.4447 32.6789 29.1013C32.7544 28.7458 32.3367 27.0391 32.2222 26.6669L31.0144 22.6836C30.7333 21.7736 29.8422 21.1113 28.8889 21.1113H20C19.4106 21.1113 18.8454 21.3455 18.4287 21.7622C18.0119 22.1789 17.7778 22.7442 17.7778 23.3335C17.7778 23.9229 18.0119 24.4882 18.4287 24.9049C18.8454 25.3216 19.4106 25.5558 20 25.5558H26.1111C26.9133 25.5558 26.7644 26.7547 25.9722 26.6669C24.9567 26.6669 24.01 27.0769 23.1967 27.778C21.6178 29.1391 20.5556 31.6136 20.5556 34.4447C20.5556 34.592 20.497 34.7333 20.3928 34.8375C20.2886 34.9417 20.1473 35.0002 20 35.0002C19.8527 35.0002 19.7113 34.9417 19.6072 34.8375C19.503 34.7333 19.4444 34.592 19.4444 34.4447C19.4444 31.7847 20.3167 29.408 21.6811 27.778C22.0173 27.3659 22.399 26.9932 22.8189 26.6669H20C19.0443 26.6669 18.6862 26.431 18.4626 26.2837C18.4263 26.2597 18.3935 26.2381 18.3622 26.2202L18.3656 26.2236C18.2367 26.4269 18.0689 26.5969 17.9 26.7658C16.6411 28.0213 14.5867 28.1002 13.27 26.8613C13.0922 26.6936 12.9278 26.5124 12.7911 26.3091C12.4948 26.7605 12.0908 27.1311 11.6156 27.3875Z" fill="black"/>
</svg>
