<svg width="33" height="33" viewBox="0 0 33 33" fill="none" xmlns="http://www.w3.org/2000/svg">
<path fill-rule="evenodd" clip-rule="evenodd" d="M16.5166 32.9429C25.3532 32.9429 32.5166 25.7794 32.5166 16.9429C32.5166 8.10632 25.3532 0.942871 16.5166 0.942871C7.68005 0.942871 0.516602 8.10632 0.516602 16.9429C0.516602 25.7794 7.68005 32.9429 16.5166 32.9429ZM11.0568 13.4489V26.9429H6.76955V13.4489H11.0568ZM11.3393 9.27437C11.3393 10.5692 10.4087 11.6054 8.91371 11.6054H8.91357H8.88572C7.44695 11.6054 6.5166 10.5693 6.5166 9.27437C6.5166 7.95031 7.47559 6.94287 8.94208 6.94287C10.4088 6.94287 11.3115 7.95029 11.3393 9.27437ZM17.7169 26.9429H13.4297L13.4298 26.9426C13.4298 26.9426 13.4861 14.7148 13.4298 13.4486H17.717V15.3592C18.2868 14.4398 19.3066 13.1321 21.5808 13.1321C24.4015 13.1321 26.5166 15.0606 26.5166 19.2055V26.9428H22.2297V19.7238C22.2297 17.9098 21.609 16.6724 20.0577 16.6724C18.8734 16.6724 18.1679 17.5069 17.858 18.3127C17.7448 18.601 17.7169 19.0039 17.7169 19.4072V26.9429Z" fill="white"/>
</svg>
