<svg width="32" height="32" viewBox="0 0 32 32" fill="none" xmlns="http://www.w3.org/2000/svg">
<circle cx="16" cy="16" r="16" fill="#222222"/>
<path d="M10.5402 26V12.506H6.25294V26H10.5402ZM8.3971 10.6626C9.89213 10.6626 10.8227 9.62638 10.8227 8.3315C10.7949 7.00742 9.89219 6 8.42548 6C6.95899 6 6 7.00744 6 8.3315C6 9.62644 6.93035 10.6626 8.36912 10.6626H8.39697H8.3971ZM12.9131 26H17.2003V18.4643C17.2003 18.061 17.2282 17.6581 17.3414 17.3698C17.6513 16.564 18.3567 15.7295 19.5411 15.7295C21.0924 15.7295 21.7131 16.9669 21.7131 18.7809V25.9999H26V18.2626C26 14.1178 23.8849 12.1892 21.0642 12.1892C18.7514 12.1892 17.7359 13.5417 17.1718 14.4628H17.2004V12.5058H12.9132C12.9695 13.772 12.9132 25.9997 12.9132 25.9997L12.9131 26Z" fill="white"/>
</svg>
