<svg width="94" height="34" viewBox="0 0 94 34" fill="none" xmlns="http://www.w3.org/2000/svg">
<path d="M43.5762 8.78125L46.75 18.6738L49.9141 8.78125H54.4258V23H50.9883V19.6797L51.3203 12.8828L47.8828 23H45.6172L42.1699 12.873L42.502 19.6797V23H39.0742V8.78125H43.5762ZM64.8652 20.3438H60.168L59.3477 23H55.6855L60.9004 8.78125H64.123L69.377 23H65.6953L64.8652 20.3438ZM60.9883 17.6973H64.0449L62.5117 12.7656L60.9883 17.6973ZM80.4121 11.4277H76.1445V23H72.7168V11.4277H68.5273V8.78125H80.4121V11.4277ZM93.1855 11.4277H88.918V23H85.4902V11.4277H81.3008V8.78125H93.1855V11.4277Z" fill="#222222"/>
<path d="M27 0C26.7348 0 26.4804 0.105357 26.2929 0.292893C26.1054 0.48043 26 0.734784 26 1V33C26 33.2652 26.1054 33.5196 26.2929 33.7071C26.4804 33.8946 26.7348 34 27 34C27.2652 34 27.5196 33.8946 27.7071 33.7071C27.8946 33.5196 28 33.2652 28 33V1C28 0.734784 27.8946 0.48043 27.7071 0.292893C27.5196 0.105357 27.2652 0 27 0Z" fill="#222222"/>
<path d="M0 20V28C0 28.2652 0.105357 28.5196 0.292893 28.7071C0.48043 28.8946 0.734784 29 1 29H24V19H1C0.734784 19 0.48043 19.1054 0.292893 19.2929C0.105357 19.4804 0 19.7348 0 20Z" fill="#222222"/>
<path d="M8 6V14C8 14.2652 8.10536 14.5196 8.29289 14.7071C8.48043 14.8946 8.73478 15 9 15H24V5H9C8.73478 5 8.48043 5.10536 8.29289 5.29289C8.10536 5.48043 8 5.73478 8 6Z" fill="#222222"/>
</svg>
