<svg width="95" height="34" viewBox="0 0 95 34" fill="none" xmlns="http://www.w3.org/2000/svg">
<path d="M44.0596 8.78125L47.2334 18.6738L50.3975 8.78125H54.9092V23H51.4717V19.6797L51.8037 12.8828L48.3662 23H46.1006L42.6533 12.873L42.9854 19.6797V23H39.5576V8.78125H44.0596ZM65.3486 20.3438H60.6514L59.8311 23H56.1689L61.3838 8.78125H64.6064L69.8604 23H66.1787L65.3486 20.3438ZM61.4717 17.6973H64.5283L62.9951 12.7656L61.4717 17.6973ZM80.8955 11.4277H76.6279V23H73.2002V11.4277H69.0107V8.78125H80.8955V11.4277ZM93.6689 11.4277H89.4014V23H85.9736V11.4277H81.7842V8.78125H93.6689V11.4277Z" fill="white"/>
<path d="M27.4834 0C27.2182 0 26.9638 0.105357 26.7763 0.292893C26.5888 0.48043 26.4834 0.734784 26.4834 1V33C26.4834 33.2652 26.5888 33.5196 26.7763 33.7071C26.9638 33.8946 27.2182 34 27.4834 34C27.7486 34 28.003 33.8946 28.1905 33.7071C28.378 33.5196 28.4834 33.2652 28.4834 33V1C28.4834 0.734784 28.378 0.48043 28.1905 0.292893C28.003 0.105357 27.7486 0 27.4834 0Z" fill="white"/>
<path d="M0.483398 20V28C0.483398 28.2652 0.588755 28.5196 0.776292 28.7071C0.963828 28.8946 1.21818 29 1.4834 29H24.4834V19H1.4834C1.21818 19 0.963828 19.1054 0.776292 19.2929C0.588755 19.4804 0.483398 19.7348 0.483398 20Z" fill="white"/>
<path d="M8.4834 6V14C8.4834 14.2652 8.58876 14.5196 8.77629 14.7071C8.96383 14.8946 9.21818 15 9.4834 15H24.4834V5H9.4834C9.21818 5 8.96383 5.10536 8.77629 5.29289C8.58876 5.48043 8.4834 5.73478 8.4834 6Z" fill="white"/>
</svg>
