<svg width="30" height="30" viewBox="0 0 30 30" fill="none" xmlns="http://www.w3.org/2000/svg">
<path d="M3.75 8.5C3.75 7.94772 4.19772 7.5 4.75 7.5H25.25C25.8023 7.5 26.25 7.94772 26.25 8.5V9C26.25 9.55228 25.8023 10 25.25 10H4.75C4.19772 10 3.75 9.55228 3.75 9V8.5ZM3.75 14.75C3.75 14.1977 4.19772 13.75 4.75 13.75H25.25C25.8023 13.75 26.25 14.1977 26.25 14.75V15.25C26.25 15.8023 25.8023 16.25 25.25 16.25H4.75C4.19772 16.25 3.75 15.8023 3.75 15.25V14.75ZM3.75 21C3.75 20.4477 4.19772 20 4.75 20H25.25C25.8023 20 26.25 20.4477 26.25 21V21.5C26.25 22.0523 25.8023 22.5 25.25 22.5H4.75C4.19772 22.5 3.75 22.0523 3.75 21.5V21Z" fill="white"/>
</svg>
