<svg width="24" height="24" viewBox="0 0 24 24" fill="none" xmlns="http://www.w3.org/2000/svg">
<path d="M14.2222 2V4.22222H18.2111L7.28888 15.1444L8.85555 16.7111L19.7778 5.78889V9.77778H22V2H14.2222ZM19.7778 19.7778H4.22222V4.22222H12V2H4.22222C3.63285 2 3.06762 2.23413 2.65087 2.65087C2.23413 3.06762 2 3.63286 2 4.22222V19.7778C2 20.3672 2.23413 20.9323 2.65087 21.3492C3.06762 21.7658 3.63285 22 4.22222 22H19.7778C20.3672 22 20.9323 21.7658 21.3492 21.3492C21.7658 20.9323 22 20.3672 22 19.7778V12H19.7778V19.7778Z" fill="white" fill-opacity="0.7"/>
</svg>
