<svg width="33" height="33" viewBox="0 0 33 33" fill="none" xmlns="http://www.w3.org/2000/svg">
<path fill-rule="evenodd" clip-rule="evenodd" d="M16.5166 32.9429C25.3532 32.9429 32.5166 25.7794 32.5166 16.9429C32.5166 8.10632 25.3532 0.942871 16.5166 0.942871C7.68005 0.942871 0.516602 8.10632 0.516602 16.9429C0.516602 25.7794 7.68005 32.9429 16.5166 32.9429ZM24.4814 13.448C24.4814 18.7867 20.3534 24.9429 12.8062 24.9429V24.9397C10.5765 24.9426 8.39311 24.3138 6.5166 23.1281C6.84076 23.1664 7.16692 23.1858 7.4934 23.1864C9.34145 23.1883 11.1364 22.5779 12.5894 21.4536C11.7331 21.4378 10.9032 21.1588 10.2159 20.6558C9.52849 20.1528 9.01801 19.4508 8.7558 18.648C9.37067 18.7646 10.0045 18.7409 10.6086 18.5787C9.67999 18.394 8.84484 17.8988 8.24483 17.177C7.64481 16.4551 7.31686 15.5512 7.3166 14.6185V14.5673C7.88723 14.8804 8.52599 15.0539 9.179 15.0729C8.31022 14.5018 7.69521 13.626 7.45918 12.6241C7.22316 11.6222 7.38387 10.5693 7.9086 9.67995C8.93887 10.9279 10.2242 11.9486 11.6811 12.6758C13.138 13.403 14.734 13.8204 16.3654 13.9009C16.1612 13.0348 16.2527 12.1266 16.6256 11.3169C16.9985 10.5071 17.632 9.84088 18.4282 9.42135C19.2245 9.00182 20.1389 8.85234 21.0301 8.99605C21.9213 9.13976 22.7395 9.56864 23.3582 10.2163C24.2771 10.0379 25.1583 9.7063 25.9638 9.23572C25.6575 10.1713 25.0164 10.9654 24.1598 11.4703C24.9733 11.3756 25.7677 11.1613 26.5166 10.8346C25.9657 11.6458 25.2725 12.3539 24.4694 12.9258C24.4814 13.0991 24.4814 13.2732 24.4814 13.448Z" fill="white"/>
</svg>
