<svg width="32" height="32" viewBox="0 0 32 32" fill="none" xmlns="http://www.w3.org/2000/svg">
<circle cx="16" cy="16" r="16" fill="#222222"/>
<path d="M12.2896 24C19.8368 24 23.9648 17.8438 23.9648 12.5052C23.9648 12.3303 23.9648 12.1562 23.9528 11.9829C24.7559 11.4111 25.4491 10.7029 26 9.89176C25.2511 10.2185 24.4567 10.4327 23.6432 10.5274C24.4998 10.0225 25.1409 9.22838 25.4472 8.29285C24.6417 8.76343 23.7605 9.09507 22.8416 9.27346C22.2229 8.62577 21.4047 8.19689 20.5135 8.05318C19.6223 7.90947 18.7079 8.05894 17.9116 8.47848C17.1154 8.89801 16.4819 9.56421 16.109 10.374C15.7361 11.1838 15.6446 12.092 15.8488 12.958C14.2174 12.8775 12.6214 12.4601 11.1645 11.7329C9.70759 11.0058 8.42227 9.98505 7.392 8.73708C6.86727 9.62645 6.70656 10.6793 6.94258 11.6812C7.17861 12.6832 7.79362 13.5589 8.6624 14.1301C8.00939 14.111 7.37062 13.9376 6.8 13.6244C6.8 13.6409 6.8 13.6583 6.8 13.6756C6.80026 14.6083 7.12821 15.5123 7.72823 16.2341C8.32824 16.9559 9.16338 17.4512 10.092 17.6359C9.4879 17.7981 8.85406 17.8218 8.2392 17.7052C8.50141 18.5079 9.01189 19.2099 9.69926 19.7129C10.3866 20.216 11.2165 20.4949 12.0728 20.5107C10.6198 21.6351 8.82485 22.2454 6.9768 22.2436C6.65032 22.2429 6.32416 22.2235 6 22.1853C7.87651 23.3709 10.0599 23.9998 12.2896 23.9968" fill="white"/>
</svg>
