<svg width="24" height="24" viewBox="0 0 24 24" fill="none" xmlns="http://www.w3.org/2000/svg">
<path fill-rule="evenodd" clip-rule="evenodd" d="M22.9989 7.05598C22.9987 6.65243 22.9098 6.29584 22.73 5.98988C22.5533 5.68884 22.2888 5.43661 21.934 5.23717C20.6789 4.53472 19.4233 3.83318 18.1676 3.13165L18.1669 3.13124C16.4927 2.19589 14.8186 1.26053 13.1457 0.322996C12.3564 -0.119319 11.591 -0.10311 10.8076 0.345555C10.1058 0.747215 7.71145 2.08325 5.53722 3.29646L5.53701 3.29658C4.09952 4.09869 2.75828 4.84709 2.06608 5.23625C1.34982 5.6388 1.00129 6.25473 1.00112 7.05523C1.00056 8.70346 1.00056 10.3517 1.00056 11.9999C1.00056 13.6482 1.00056 15.2964 1 16.9447C1 17.3393 1.0853 17.6891 1.2572 17.9904C1.43392 18.3005 1.70214 18.5597 2.06513 18.7636C2.75343 19.1506 4.08352 19.8926 5.51186 20.6896L5.51493 20.6913L5.51531 20.6915C7.69539 21.9078 10.1033 23.2512 10.8072 23.6543C11.591 24.1032 12.3564 24.1193 13.146 23.6769C14.8449 22.7247 16.5451 21.7749 18.2453 20.825L18.2476 20.8237L18.252 20.8213C19.4798 20.1354 20.7076 19.4494 21.935 18.7626C22.2979 18.5588 22.5662 18.2994 22.7429 17.9896C22.9145 17.6882 23 17.3385 23 16.9437C23 16.9437 23 10.3525 22.9989 7.05598ZM18.3782 9.71637V10.8421H19.538V9.71637H20.1179V10.8421H21.2778V11.405H20.1179V12.5307H21.2778V13.0936H20.1179V14.2193H19.538V13.0936H18.3782V14.2193H17.7983V13.0936H16.6386V12.5307H17.7983V11.405H16.6386V10.8421H17.7983V9.71637H18.3782ZM19.538 11.4049H18.3782V12.5307H19.538V11.405V11.4049ZM19.1384 8.02767C17.7237 5.65735 15.0826 4.06271 12.0574 4.06271L12.0573 4.06262C7.541 4.06262 3.87993 7.61635 3.87993 11.9999C3.87993 13.438 4.27408 14.7866 4.96296 15.9499C6.37413 18.3328 9.02275 19.9373 12.0574 19.9373L12.1485 19.9368C15.1384 19.9051 17.7434 18.3154 19.1426 15.9651L15.5887 13.9668C15.5944 13.9572 15.6001 13.9476 15.6057 13.9379L15.5887 13.9668L15.5887 13.9668C14.8861 15.1529 13.5682 15.9523 12.0574 15.9523C10.5438 15.9523 9.22434 15.1502 8.52246 13.9608C8.16986 13.364 7.98468 12.6879 7.98542 11.9999C7.98542 9.81715 9.80855 8.04755 12.0573 8.04755L12.1038 8.0478C13.5786 8.06384 14.8641 8.84161 15.5653 9.99402L19.1246 8.00486L19.1384 8.02767Z" fill="white"/>
</svg>
