<svg width="24" height="24" viewBox="0 0 24 24" fill="none" xmlns="http://www.w3.org/2000/svg">
<path d="M11.1738 0H14.9655V18.166C13.0204 18.548 11.5922 18.701 10.0413 18.701C5.41184 18.701 2.99902 16.535 2.99902 12.381C2.99902 8.379 5.55969 5.781 9.52436 5.781C10.1399 5.781 10.6076 5.831 11.1738 5.984V0ZM11.1738 9.143C10.7616 8.99891 10.3284 8.92989 9.89348 8.939C7.9725 8.939 6.86514 10.162 6.86514 12.304C6.86514 14.394 7.92419 15.54 9.86933 15.54C10.2877 15.54 10.6327 15.515 11.1738 15.438V9.142V9.143ZM20.999 6.06V15.158C20.999 18.292 20.7777 19.796 20.1129 21.095C19.4974 22.344 18.6848 23.134 17.0102 24L13.489 22.267C15.1636 21.452 15.9763 20.737 16.4932 19.642C17.0353 18.521 17.2073 17.221 17.2073 13.807V6.059H20.999V6.06ZM17.2073 0.021H20.999V4.047H17.2073V0.021Z" fill="white"/>
</svg>
