<svg width="24" height="24" viewBox="0 0 24 24" fill="none" xmlns="http://www.w3.org/2000/svg">
<path fill-rule="evenodd" clip-rule="evenodd" d="M12.4078 2.29126V2.83513H0.799376V11.3201L0.799621 11.3201V2.83513H12.4081V2.29126L12.4078 2.29126ZM11.7175 11.3201V11.8641H0.799376V21.1649L0.799621 21.1649V11.8641H11.7178V11.3201L11.7175 11.3201ZM12.51 21.1649V21.3909L12.5103 21.3906V21.1649L12.51 21.1649ZM13.405 7.73043L17.8287 14.0668L17.8288 14.0667L13.4053 7.73043L13.405 7.73043ZM22.9678 7.7301L18.1608 14.4746L23.428 21.7086H23.4283L18.161 14.4746L22.968 7.7301L22.9678 7.7301ZM17.8285 14.8827L17.8284 14.8825L12.8935 21.7086H12.8938L17.8285 14.8827ZM-0.000976562 22H12.7995L13.041 21.9998L17.8292 15.3765L22.6423 21.9998H23.999L18.5184 14.4728L23.5317 7.43884H21.6788L21.9797 7.75643L17.8316 13.5642L13.5555 7.43917H12.1786L17.1653 14.473L12.5271 20.8736H1.08887V12.1554H12.007V11.0288H1.08887V3.12639H12.6973V2H-0.000976562V22Z" fill="white"/>
</svg>
