<svg width="24" height="24" viewBox="0 0 24 24" fill="none" xmlns="http://www.w3.org/2000/svg">
<path fill-rule="evenodd" clip-rule="evenodd" d="M0 0H24V24H0V0ZM6.31052 20.0561L8.14708 18.9446C8.50146 19.5728 8.82377 20.1044 9.59692 20.1044C10.338 20.1044 10.8054 19.8145 10.8054 18.6869V11.0183H13.0607V18.7188C13.0607 21.0548 11.6914 22.1181 9.69358 22.1181C7.88936 22.1181 6.84208 21.1837 6.31042 20.0559L6.31052 20.0561ZM16.1221 18.7512L14.2857 19.8144L14.2856 19.8145C14.9461 21.1195 16.2994 22.1184 18.3937 22.1184C20.5363 22.1184 22.1312 21.0069 22.1312 18.9768C22.1312 17.092 21.0519 16.2544 19.1347 15.4327L18.5709 15.1911C17.6043 14.7722 17.1854 14.4982 17.1854 13.8216C17.1854 13.2739 17.6043 12.855 18.2649 12.855C18.9093 12.855 19.328 13.1288 19.7147 13.8216L21.4708 12.6938C20.7298 11.3889 19.6988 10.8894 18.265 10.8894C16.2511 10.8894 14.9623 12.1782 14.9623 13.8699C14.9623 15.7064 16.0417 16.5764 17.6689 17.2689L18.2326 17.5108C19.2637 17.9618 19.8759 18.2357 19.8759 19.0089C19.8759 19.6534 19.28 20.1206 18.3454 20.1206C17.2339 20.1206 16.6056 19.5407 16.1221 18.7512Z" fill="white"/>
</svg>
