<svg width="24" height="24" viewBox="0 0 24 24" fill="none" xmlns="http://www.w3.org/2000/svg">
<path d="M23.8655 13.3152L20.9114 11.8881L23.7098 10.5793C23.9269 10.4775 24.0543 10.209 23.9043 9.95865L23.6134 9.622C23.4258 9.41669 23.2219 9.26706 22.9744 9.36447L20.8952 10.1482C20.8497 10.1653 20.8 10.1674 20.7533 10.1542L19.9485 9.92622C19.9191 9.91793 19.8882 9.9174 19.8586 9.9247C19.829 9.932 19.8018 9.94686 19.7796 9.96784L18.9187 10.7851C18.7303 9.70165 18.2889 8.67797 17.6305 7.79716L18.8891 7.78731C18.9157 7.78709 18.9418 7.77978 18.9647 7.76614C18.9876 7.7525 19.0064 7.73301 19.0192 7.70969L19.4647 6.90156C19.4879 6.85952 19.5245 6.82648 19.5687 6.80772L21.6282 5.92957C21.7547 5.87566 21.8325 5.61288 21.8082 5.44244L21.7412 4.82744C21.6864 4.65082 21.4384 4.49538 21.3199 4.53916L18.2219 5.61897L19.2753 2.7146C19.3567 2.48913 19.257 2.20929 18.9739 2.13832L18.5301 2.10598C18.2523 2.0936 18.0023 2.13176 17.8961 2.37579L16.9801 4.40013C16.9601 4.44434 16.9264 4.48097 16.8841 4.50466L16.1538 4.91247C16.1271 4.92736 16.1049 4.9489 16.0891 4.975C16.0733 5.00111 16.0646 5.03086 16.0638 5.06135L16.0328 6.24841C15.1334 5.61533 14.0971 5.20363 13.0085 5.04682L13.8921 4.14926C13.9108 4.13028 13.9241 4.10667 13.9307 4.08085C13.9372 4.05503 13.9368 4.02794 13.9294 4.00235L13.673 3.11595C13.6596 3.06981 13.6621 3.02054 13.68 2.97598L14.5153 0.898762C14.5668 0.771263 14.436 0.530325 14.2982 0.427013L13.8159 0.0394512C13.6522 -0.0466111 13.3669 0.0187325 13.3141 0.133482L11.887 3.08773L10.5782 0.289201C10.4764 0.0720762 10.2079 -0.0552361 9.95756 0.0947636L9.62091 0.385669C9.41559 0.573357 9.26597 0.777075 9.36347 1.02476L10.1471 3.10385C10.1643 3.14932 10.1663 3.19901 10.1531 3.2457L9.92522 4.05063C9.91689 4.07995 9.91634 4.11094 9.92364 4.14053C9.93094 4.17012 9.94583 4.1973 9.96684 4.21938L10.784 5.08029C9.7006 5.26876 8.67696 5.71008 7.79616 6.36841L7.78622 5.11001C7.78604 5.08336 7.77876 5.05723 7.76513 5.03433C7.75151 5.01143 7.73202 4.99257 7.70869 4.97969L6.90057 4.53429C6.85854 4.51112 6.82547 4.47455 6.80663 4.43041L5.92857 2.37073C5.87466 2.24435 5.61188 2.16654 5.44135 2.19092L4.82635 2.25785C4.64982 2.3127 4.49429 2.56067 4.53807 2.67917L5.61797 5.77722L2.7136 4.72385C2.48804 4.64229 2.2082 4.74213 2.13723 5.02526L2.10489 5.46897C2.09251 5.74675 2.13067 5.99679 2.3747 6.10291L4.39904 7.01885C4.44328 7.03889 4.47992 7.07261 4.50357 7.11503L4.91157 7.84534C4.94176 7.89944 4.99838 7.93366 5.06035 7.93525L6.24722 7.96619C5.61422 8.86562 5.20258 9.90184 5.04582 10.9905L4.14816 10.1069C4.12919 10.0882 4.10558 10.0749 4.07976 10.0683C4.05394 10.0618 4.02684 10.0623 4.00126 10.0697L3.11485 10.3261C3.06876 10.3394 3.0195 10.337 2.97498 10.319L0.897763 9.48362C0.77017 9.43234 0.529326 9.56312 0.426014 9.70084L0.0384522 10.1832C-0.0476101 10.3468 0.0178273 10.6321 0.132577 10.6849L3.08663 12.112L0.288202 13.4207C0.0710772 13.5226 -0.0562351 13.7911 0.0937646 14.0414L0.38467 14.3781C0.572358 14.5833 0.77617 14.7331 1.02376 14.6356L3.10295 13.8519C3.14838 13.8348 3.19808 13.8327 3.24479 13.8459L4.04963 14.0739C4.10926 14.0908 4.17338 14.0748 4.21838 14.0323L5.07938 13.2151C5.26785 14.2984 5.70917 15.3221 6.3675 16.2029L5.10901 16.2128C5.08238 16.213 5.05629 16.2203 5.03342 16.234C5.01055 16.2476 4.99173 16.2671 4.97888 16.2904L4.53338 17.0985C4.51013 17.1405 4.47351 17.1736 4.42932 17.1925L2.36992 18.0705C2.24335 18.1245 2.16554 18.3872 2.18992 18.5577L2.25685 19.1727C2.3117 19.3493 2.55967 19.5047 2.67826 19.4609L5.77622 18.3811L4.72285 21.2855C4.64129 21.511 4.74113 21.7908 5.02426 21.8618L5.46797 21.8941C5.74576 21.9065 5.99579 21.8684 6.10191 21.6243L7.01785 19.6C7.03795 19.5558 7.07165 19.5192 7.11403 19.4954L7.84435 19.0875C7.89844 19.0573 7.93266 19.0007 7.93425 18.9388L7.96519 17.7517C8.86463 18.3848 9.90088 18.7965 10.9896 18.9533L10.1059 19.8509C10.0872 19.8699 10.0739 19.8935 10.0674 19.9193C10.0609 19.9451 10.0614 19.9722 10.0687 19.9978L10.3252 20.8842C10.3385 20.9303 10.3359 20.9796 10.318 21.0241L9.48262 23.1013C9.43134 23.2288 9.56212 23.4698 9.69994 23.5731L10.1821 23.9606C10.3457 24.0466 10.631 23.9812 10.6839 23.8665L12.1108 20.9123L13.4198 23.7107C13.5216 23.9279 13.7901 24.0553 14.0405 23.9053L14.377 23.6143C14.5822 23.4267 14.7321 23.2228 14.6346 22.9753L13.8508 20.8962C13.8337 20.8507 13.8316 20.801 13.8449 20.7543L14.0727 19.9494C14.0896 19.8898 14.0738 19.8256 14.0312 19.7806L13.2141 18.9196C14.2974 18.7312 15.3211 18.2898 16.2019 17.6314L16.2118 18.8901C16.2122 18.9443 16.2418 18.9941 16.2893 19.0202L17.0975 19.4657C17.1395 19.4889 17.1725 19.5254 17.1914 19.5696L18.0695 21.6292C18.1234 21.7557 18.3861 21.8335 18.5567 21.8091L19.1716 21.7422C19.3482 21.6873 19.5036 21.4394 19.46 21.3209L18.38 18.2228L21.2843 19.2762C21.51 19.3577 21.7898 19.2579 21.8608 18.9748L21.8931 18.531C21.9055 18.2533 21.8673 18.0032 21.6233 17.8971L19.599 16.9811C19.5547 16.961 19.5181 16.9274 19.4944 16.885L19.0865 16.1547C19.0716 16.1281 19.0501 16.1058 19.024 16.09C18.9979 16.0742 18.9681 16.0655 18.9377 16.0647L17.7506 16.0337C18.3837 15.1343 18.7954 14.0982 18.9522 13.0096L19.8499 13.8931C19.8688 13.9118 19.8924 13.9251 19.9182 13.9316C19.944 13.9382 19.9711 13.9377 19.9967 13.9304L20.8832 13.674C20.9293 13.6606 20.9785 13.6631 21.023 13.681L23.1003 14.5163C23.2278 14.5677 23.4687 14.4369 23.572 14.2992L23.9595 13.8169C24.0456 13.6533 23.9801 13.3681 23.8654 13.3152H23.8655ZM17.0367 11.2165H15.5428C15.4359 10.7312 15.2299 10.2731 14.9378 9.87109L15.9849 8.82391C16.5259 9.502 16.8984 10.3203 17.0367 11.2164V11.2165ZM13.9505 8.94053C13.5319 8.67248 13.0625 8.49387 12.5717 8.41591V6.93531C13.4523 7.03352 14.2917 7.36087 15.0063 7.88472L13.9505 8.94053ZM13.7686 12.0001C13.7686 12.9773 12.9764 13.7696 11.9991 13.7696C11.0218 13.7696 10.2295 12.9773 10.2295 12.0001C10.2295 11.0228 11.0217 10.2305 11.9991 10.2305C12.9764 10.2305 13.7686 11.0227 13.7686 12.0001ZM11.2155 6.96241V8.45631C10.7302 8.56328 10.2722 8.76923 9.87019 9.06128L8.823 8.01409C9.50109 7.47316 10.3192 7.10069 11.2155 6.96241ZM8.93953 10.0487C8.67154 10.4672 8.49296 10.9366 8.415 11.4274H6.93432C7.03259 10.5469 7.35993 9.7074 7.88372 8.99275L8.93953 10.0487ZM6.96141 12.7836H8.45541C8.56232 13.2689 8.76827 13.7269 9.06037 14.1289L8.01319 15.1761C7.47225 14.4981 7.09978 13.6798 6.9615 12.7836H6.96141ZM10.0477 15.0596C10.4662 15.3276 10.9356 15.5062 11.4264 15.5842V17.0648C10.5459 16.9666 9.70648 16.6392 8.99194 16.1154L10.0476 15.0596H10.0477ZM12.7827 17.0377V15.5438C13.268 15.4368 13.726 15.2309 14.128 14.9388L15.1751 15.9859C14.4971 16.5269 13.6788 16.8994 12.7826 17.0377H12.7827ZM15.0587 13.9515C15.3266 13.5329 15.5052 13.0635 15.5832 12.5727H17.0639C16.9656 13.4532 16.6383 14.2926 16.1145 15.0073L15.0587 13.9515Z" fill="white"/>
</svg>
