<svg width="24" height="24" viewBox="0 0 24 24" fill="none" xmlns="http://www.w3.org/2000/svg">
<path fill-rule="evenodd" clip-rule="evenodd" d="M23.999 0H-0.000976562V16.3143V24H23.999V8.93913H21.4558V16.8783H20.432V8.93913H17.9165V8H23.999V0ZM-0.000976562 16.3143C-0.000976868 16.4487 0.0379547 16.5802 0.111042 16.6924C0.185212 16.8063 0.291182 16.8951 0.415386 16.9475C0.539591 16.9999 0.676378 17.0135 0.808237 16.9865C0.940096 16.9595 1.06103 16.8933 1.15555 16.7962C1.28455 16.6691 1.3588 16.491 1.3588 16.3083C1.3588 16.1257 1.28455 15.9476 1.15555 15.8205C1.09388 15.7539 1.01938 15.7009 0.936677 15.6648C0.853977 15.6287 0.764839 15.6102 0.674798 15.6104H0.651548H0.650798C0.564702 15.6127 0.47993 15.6325 0.401483 15.6686C0.323037 15.7047 0.252505 15.7563 0.194049 15.8205C0.0683028 15.9507 -0.00176497 16.126 -0.000950889 16.3083C-0.000968005 16.3103 -0.000976562 16.3123 -0.000976562 16.3143ZM3.1663 16.8791V8L4.49454 8.00076L8.87379 14.9529C8.99864 15.147 9.1172 15.3453 9.22929 15.5473H9.25254C9.20229 15.115 9.17829 14.6789 9.19029 14.2428V8H10.2095V16.8745H8.95554L4.45554 9.7953C4.34604 9.62103 4.2523 9.43457 4.17804 9.2405H4.13904C4.18148 9.64463 4.19852 10.0511 4.19004 10.4574V16.8791H3.1663ZM12.479 16.8791V8L16.916 8.00076V8.93989H13.5253V11.8889H16.6858V12.8243H13.5253V15.9042H17.135L17.1313 16.8791H12.479Z" fill="white"/>
</svg>
