<svg width="24" height="24" viewBox="0 0 24 24" fill="none" xmlns="http://www.w3.org/2000/svg">
<path d="M11.9986 23.9999C11.6757 23.9999 11.3742 23.9117 11.0943 23.7574L8.2305 22.0155C7.79988 21.773 8.01519 21.6848 8.14438 21.6407C8.72572 21.4423 8.83338 21.3982 9.43625 21.0453C9.50093 21.0013 9.58705 21.0233 9.65156 21.0674L11.8479 22.4124C11.934 22.4565 12.0417 22.4565 12.1063 22.4124L20.6977 17.3192C20.7838 17.2751 20.8269 17.1869 20.8269 17.0767V6.91214C20.8269 6.8019 20.7838 6.71371 20.6977 6.66962L12.1063 1.59838C12.0202 1.55428 11.9125 1.55428 11.8479 1.59838L3.25654 6.6697C3.17041 6.7138 3.12735 6.82404 3.12735 6.91223V17.0767C3.12735 17.1649 3.17041 17.2751 3.25654 17.3192L5.60361 18.7082C6.87403 19.3696 7.67061 18.598 7.67061 17.8263V7.79405C7.67061 7.66177 7.77835 7.52948 7.92906 7.52948H9.02724C9.15643 7.52948 9.28561 7.63972 9.28561 7.79405V17.8262C9.28561 19.5681 8.35969 20.5823 6.74476 20.5823C6.24955 20.5823 5.86198 20.5823 4.76389 20.0311L2.50295 18.7082C1.94313 18.3774 1.59863 17.7601 1.59863 17.0986V6.93427C1.59863 6.27284 1.94313 5.6555 2.50295 5.3247L11.0943 0.231502C11.6326 -0.0771672 12.3647 -0.0771672 12.9029 0.231502L21.4943 5.3247C22.0541 5.65542 22.3986 6.27276 22.3986 6.93427V17.0987C22.3986 17.7601 22.0541 18.3775 21.4943 18.7082L12.9029 23.8016C12.623 23.9339 12.3001 24 11.9986 24V23.9999ZM14.6471 17.0104C10.8789 17.0104 10.1038 15.2466 10.1038 13.7473C10.1038 13.615 10.2115 13.4827 10.3622 13.4827H11.4818C11.611 13.4827 11.7187 13.5709 11.7187 13.7032C11.891 14.8717 12.3862 15.445 14.6686 15.445C16.4773 15.445 17.2525 15.0261 17.2525 14.034C17.2525 13.4607 17.0372 13.0418 14.2164 12.7551C11.8694 12.5125 10.4052 11.9834 10.4052 10.0652C10.4052 8.27919 11.8694 7.22089 14.3241 7.22089C17.0802 7.22089 18.4367 8.191 18.609 10.3077C18.609 10.3738 18.5874 10.44 18.5444 10.5061C18.5013 10.5502 18.4367 10.5943 18.3721 10.5943H17.2525C17.1448 10.5943 17.0372 10.5061 17.0156 10.3959C16.7572 9.18323 16.0897 8.78637 14.3241 8.78637C12.3432 8.78637 12.1063 9.4919 12.1063 10.021C12.1063 10.6605 12.3862 10.8589 15.0562 11.2116C17.7047 11.5644 18.9535 12.0716 18.9535 13.9678C18.9319 15.9081 17.3817 17.0104 14.6471 17.0104V17.0104Z" fill="white"/>
</svg>
