<svg width="24" height="24" viewBox="0 0 24 24" fill="none" xmlns="http://www.w3.org/2000/svg">
<path fill-rule="evenodd" clip-rule="evenodd" d="M23.9363 14.3789C23.8617 14.1682 23.7272 13.9823 23.5483 13.8426C23.3694 13.7029 23.1535 13.6152 22.9254 13.5894C22.6558 13.558 22.3827 13.5728 22.1185 13.6331C21.7099 13.7207 21.2942 13.7737 20.8761 13.7917C21.9941 11.962 22.8481 9.99218 23.414 7.93729C24.2562 4.77523 23.8064 3.33519 23.2806 2.68289C22.5823 1.82603 21.6887 1.13794 20.6699 0.672708C19.6512 0.207477 18.5351 -0.0222141 17.4093 0.00169209C16.3766 -0.00769291 15.3482 0.132129 14.3579 0.416558C13.7681 0.318473 13.1712 0.265737 12.5728 0.258841C11.4852 0.218786 10.4079 0.476315 9.46396 1.002C8.74813 0.767238 8.01408 0.588378 7.26885 0.467131C6.40011 0.264981 5.49881 0.230881 4.61647 0.36678C3.73414 0.50268 2.88806 0.805913 2.12661 1.25915C0.594273 2.30831 -0.116222 4.13235 0.0154497 6.68069C0.251203 8.5818 0.667123 10.4578 1.25793 12.2848C1.59819 13.426 2.04605 14.5345 2.59585 15.596C3.00189 16.5644 3.77378 17.3459 4.75384 17.7809C5.11309 17.8958 5.49746 17.9153 5.86711 17.8375C6.23676 17.7597 6.57824 17.5875 6.85616 17.3386C6.9823 17.4835 7.13146 17.6079 7.29801 17.7072C7.55616 17.8626 7.83757 17.9783 8.13223 18.0501C9.09673 18.3107 10.1234 18.2503 11.0484 17.8787C11.0537 18.0252 11.0582 18.1658 11.0608 18.2875C11.0661 18.4838 11.0723 18.6767 11.0794 18.8575C11.0689 19.8137 11.2001 20.7663 11.4691 21.6862C11.4832 21.723 11.5018 21.7779 11.5212 21.837C11.6764 22.4001 11.978 22.915 12.397 23.3328C12.8993 23.7802 13.5622 24.0192 14.2439 23.9988C14.5343 23.997 14.8236 23.9657 15.1073 23.9054C15.6449 23.8399 16.1636 23.6706 16.6328 23.4075C17.1019 23.1445 17.512 22.7929 17.8388 22.3736C18.5555 21.3836 18.9045 19.893 18.9673 17.5435L18.9902 17.3532L19.0053 17.2289L19.174 17.2435H19.2173C20.173 17.2828 21.1262 17.1226 22.0125 16.7738C22.5701 16.5226 24.3578 15.6072 23.9363 14.3737V14.3789ZM10.1287 7.39983C9.92602 7.35845 9.71473 7.38886 9.53313 7.48554C9.50947 7.50206 9.48946 7.52301 9.47428 7.54716C9.4591 7.5713 9.44906 7.59815 9.44476 7.62612C9.44477 7.72497 9.48147 7.82051 9.54815 7.89527C9.66672 8.05321 9.84378 8.16044 10.0421 8.19442C10.0685 8.19795 10.0951 8.19967 10.1217 8.19956C10.253 8.20122 10.3816 8.16371 10.4902 8.09211C10.5988 8.02052 10.6821 7.91829 10.7288 7.79926C10.7597 7.58669 10.4407 7.4444 10.1314 7.4024L10.1287 7.39983ZM18.4753 7.40926C18.4514 7.24211 18.1448 7.19497 17.8567 7.23782C17.5686 7.28068 17.2849 7.40411 17.3088 7.57126C17.3537 7.67612 17.4298 7.76563 17.5274 7.82837C17.625 7.89111 17.7396 7.92425 17.8567 7.92355C17.8812 7.92351 17.9057 7.92179 17.93 7.91841C18.0833 7.8923 18.2234 7.81788 18.3286 7.70669C18.4166 7.63175 18.4703 7.52601 18.4779 7.41268L18.4753 7.40926ZM22.2397 14.2562C22.8097 14.1422 23.1526 14.2425 23.2595 14.5554H23.2516C23.461 15.1597 22.3228 15.854 21.6936 16.1377C20.9865 16.4147 20.2302 16.5545 19.4676 16.5491C19.1365 16.5564 18.806 16.5168 18.4867 16.4317C18.3603 17.558 18.0917 19.6572 17.9352 20.5367C17.8853 21.2428 17.5767 21.9083 17.0653 22.4132C16.5539 22.918 15.8733 23.229 15.1463 23.2899C14.88 23.346 14.6084 23.3748 14.3359 23.3756C13.7867 23.3712 13.254 23.193 12.8187 22.8681C12.3834 22.5432 12.0694 22.0894 11.9243 21.5755C11.6103 19.9706 11.4973 18.3347 11.5876 16.7034C10.9826 17.2324 10.1928 17.5186 9.37839 17.504C9.006 17.5018 8.63531 17.4551 8.27465 17.3652C8.16595 17.3386 7.20184 17.0891 7.21421 16.4891C7.22569 15.9402 8.0293 15.7788 8.33304 15.7179L8.33385 15.7177C9.39837 15.5045 9.46748 15.4196 9.79789 15.0136L9.79903 15.0122C9.87738 14.914 9.9578 14.8174 10.0403 14.7225V14.6865C9.56118 14.6728 9.09207 14.5504 8.67054 14.3291C8.01484 15.008 7.38005 15.7045 6.76617 16.4188C6.61055 16.6389 6.40528 16.8217 6.16595 16.9532C5.92663 17.0848 5.65953 17.1618 5.38495 17.1783C5.23741 17.178 5.09088 17.1546 4.95106 17.1089C3.86941 16.7574 2.84167 15.056 1.89611 12.0516C1.32105 10.2776 0.914914 8.45626 0.682789 6.61035C0.559954 4.30716 1.17854 2.67684 2.50409 1.76482C3.89441 0.952431 5.55888 0.704499 7.13644 1.0748C7.96171 1.20566 8.77241 1.41172 9.55778 1.69024C10.4401 1.12761 11.4827 0.84898 12.5376 0.893939C13.1239 0.901786 13.7074 0.974545 14.2767 1.1108C15.2721 0.782315 16.3184 0.622549 17.3697 0.638505C18.3931 0.613146 19.4087 0.818667 20.3363 1.23887C21.2639 1.65908 22.0783 2.28249 22.7152 3.05999C23.075 3.62343 23.2331 4.28627 23.165 4.94574C23.1282 5.88853 22.98 6.82411 22.7231 7.73409C22.0885 10.0346 21.0825 12.2231 19.7424 14.2185C19.9421 14.3599 20.5475 14.5991 22.2397 14.2562ZM19.0125 7.89352C19.0694 7.57993 19.1037 7.26287 19.115 6.94464H19.1141C17.7461 6.7835 17.2009 7.08607 16.9862 7.38351C16.2656 8.38227 17.6717 10.8293 18.2733 11.8763L18.2746 11.8785L18.2916 11.9081C18.4366 12.1611 18.5425 12.3458 18.5918 12.4622C18.6451 12.5874 18.7062 12.7093 18.7748 12.8273C19.0977 12.0115 19.168 11.1219 18.9771 10.2679C18.9153 9.85057 18.8858 9.42939 18.8888 9.00783C18.9055 8.63421 18.9468 8.26202 19.0125 7.89352ZM20.0753 1.85703C19.2573 1.48191 18.3608 1.29601 17.4563 1.31395L17.4545 1.30966C16.7779 1.29759 16.1021 1.35911 15.4397 1.4931C16.4741 1.94344 17.3916 2.61233 18.1252 3.45085C18.9417 4.3289 19.5221 5.38884 19.8149 6.53663C19.8217 6.59683 19.8178 6.65771 19.8034 6.71664C19.8106 7.14565 19.7742 7.5743 19.6947 7.99638C19.6336 8.33824 19.5949 8.68351 19.5789 9.03012C19.5787 9.418 19.6082 9.80537 19.6673 10.189C19.9239 11.2917 19.7653 12.4471 19.2201 13.4462L19.2546 13.4882L19.3377 13.5902C22.0816 9.40041 23.0315 4.54288 22.1699 3.47571C21.6102 2.78623 20.8932 2.23214 20.0753 1.85703ZM5.17728 16.4728C5.30012 16.514 5.68364 16.6374 6.23772 15.9911H6.23684C6.83526 15.2927 7.4541 14.611 8.0926 13.9468C8.00718 13.8759 7.92529 13.8011 7.84694 13.7222C7.47108 13.336 7.19083 12.8719 7.02746 12.365C6.86408 11.8581 6.82187 11.3218 6.90403 10.7967C7.02409 9.8797 7.04807 8.95324 6.97561 8.03152C6.96589 7.87723 6.9597 7.76666 6.9597 7.68866C6.9544 7.48637 6.90756 4.17773 8.8844 2.2414C8.89693 2.22861 8.90995 2.21677 8.92309 2.20482C8.92757 2.20075 8.93205 2.19667 8.93654 2.19254C7.73206 1.81196 4.73366 1.06109 2.91059 2.31511C1.79006 3.08656 1.27575 4.52145 1.38179 6.57864C1.6128 8.36922 2.00911 10.1361 2.56595 11.8579C3.40458 14.5254 4.35721 16.2071 5.17728 16.4728ZM7.68529 12.1579C7.81775 12.5684 8.045 12.9443 8.34976 13.2568L8.35241 13.2551C8.57893 13.4908 8.85228 13.6797 9.15601 13.8104C9.45974 13.9411 9.78758 14.0108 10.1198 14.0154C10.2094 13.6927 10.318 13.3754 10.445 13.0648L10.4963 12.9311C10.5601 12.7638 10.6356 12.6015 10.7156 12.4297L10.7216 12.4168L10.7224 12.4151C11.1199 11.5573 11.6147 10.4899 11.0442 7.92952C11.0198 7.71937 10.9286 7.52179 10.7833 7.36419C10.6379 7.2066 10.4455 7.09681 10.2329 7.05007C9.30879 6.98004 8.39013 7.24008 7.64987 7.78123C7.65343 7.85069 7.65755 7.92013 7.66224 7.98952C7.73779 8.95558 7.71203 9.92658 7.58536 10.8876C7.51865 11.3129 7.55283 11.7473 7.68529 12.1579ZM7.98744 16.5183C8.12949 16.6068 8.28565 16.672 8.44962 16.7111L8.4505 16.712C9.00409 16.8926 9.60269 16.8969 10.1589 16.7241C10.7152 16.5514 11.2 16.2108 11.5426 15.752C11.5811 15.6892 11.605 15.619 11.6127 15.5463C11.6203 15.4736 11.6114 15.4001 11.5868 15.3311C11.5619 15.236 11.5171 15.147 11.455 15.0695C11.393 14.9921 11.3151 14.9279 11.2262 14.8811L11.2262 14.8811C11.0388 14.8057 10.9346 14.7637 10.7084 15.0097C10.5738 15.1531 10.4724 15.2778 10.3835 15.3872C10.372 15.4013 10.3607 15.4152 10.3496 15.4288C9.92628 15.9474 9.73275 16.1257 8.47966 16.376C8.31054 16.4051 8.1454 16.4528 7.98744 16.5183ZM14.2372 22.7245C14.4988 22.7463 14.7622 22.7143 15.0102 22.6307L15.0093 22.6333C16.4886 22.3255 17.0144 21.8087 17.261 20.4226C17.4483 19.3726 17.8159 16.4026 17.8672 15.7683C17.8027 14.5022 18.5061 14.2494 18.8976 14.1397C18.8646 14.0928 18.8241 14.0432 18.7806 13.99C18.7589 13.9634 18.7364 13.9359 18.7138 13.9074C18.3999 13.5505 18.1433 13.1497 17.9529 12.7185C17.9176 12.6328 17.8036 12.4339 17.671 12.2042L17.6686 12.2C16.9466 10.9444 15.4487 8.33948 16.4197 6.99693C16.8651 6.37892 17.7444 6.1312 19.0372 6.25891C18.7189 5.40942 18.2453 4.62253 17.6392 3.93601C17.0181 3.20279 16.2388 2.61069 15.3561 2.20148C14.4734 1.79226 13.5088 1.57591 12.5305 1.56767C11.9515 1.53482 11.3717 1.61973 10.8284 1.81693C10.2851 2.01414 9.79032 2.3193 9.37574 2.71284C8.34355 3.90766 7.74764 5.40001 7.6808 6.9575C7.73913 6.92579 7.80275 6.89321 7.87168 6.85893C8.39281 6.59702 8.95717 6.42558 9.53922 6.35234C9.77985 6.29967 10.0291 6.29536 10.2715 6.33969C10.5139 6.38401 10.7444 6.47603 10.9487 6.61007C11.1531 6.74411 11.3269 6.91733 11.4596 7.11905C11.5923 7.32077 11.681 7.54671 11.7202 7.78295C12.3395 10.5596 11.769 11.7897 11.3528 12.6871L11.3526 12.6876C11.2757 12.8539 11.2032 13.0108 11.1449 13.1625L11.0936 13.2971C10.976 13.5833 10.8751 13.8758 10.7914 14.1731C11.0283 14.1243 11.2752 14.1545 11.4922 14.2588C11.6783 14.3434 11.843 14.4667 11.9746 14.6198C12.1062 14.773 12.2016 14.9523 12.2539 15.1451C12.2729 15.2098 12.2871 15.2756 12.2964 15.3423C12.3072 15.3767 12.3123 15.4126 12.3114 15.4485C12.1764 17.4101 12.2653 19.3801 12.5765 21.3227C12.6349 21.571 12.7466 21.8045 12.9043 22.0081C13.0621 22.2117 13.2623 22.3808 13.492 22.5042C13.7217 22.6276 13.9756 22.7027 14.2372 22.7245ZM19.7035 15.8694C20.2885 15.8519 20.8659 15.7359 21.41 15.5265L21.4073 15.5274C21.7668 15.3721 22.0994 15.1639 22.3935 14.9102H22.3776C20.9548 15.1948 19.9465 15.1562 19.3819 14.7945C19.3483 14.7733 19.3158 14.7504 19.2847 14.726C19.2369 14.7414 19.1883 14.7551 19.138 14.7688L19.1362 14.7693C18.8187 14.8566 18.515 14.94 18.5547 15.7263C18.9168 15.8755 19.3143 15.925 19.7035 15.8694Z" fill="white"/>
</svg>
