<svg width="24" height="24" viewBox="0 0 24 24" fill="none" xmlns="http://www.w3.org/2000/svg">
<path fill-rule="evenodd" clip-rule="evenodd" d="M21.4898 17.2421V17.9347L24 16.7208V15.9429L21.4898 17.2421ZM2.4256 17.3154L0 15.9247V16.6435L2.4256 17.8691V17.3154ZM20.7687 17.1177L12.4245 12.9998V13.6762L20.7687 17.9457V17.1177ZM11.7035 13.0006L3.14666 17.2382V18L11.7035 13.6759V13.0006ZM0.546411 6.13844L9.20546 10.314H9.20557C9.54956 10.4799 9.55238 10.9684 9.21045 11.1382L0.576569 15.4247L2.71242 16.6494L12.064 11.8507L21.2531 16.5534L23.4192 15.4323L15.0622 11.2546C14.7242 11.0856 14.7237 10.6041 15.0614 10.4344L23.5054 6.18991L21.1835 5.00206L12.064 9.80242L2.78912 5L0.546411 6.13844ZM0.107829 6.79309V7.55306V7.55317L7.36728 11.1434L8.18369 10.8176L0.107829 6.79309ZM15.8942 10.822C15.8942 10.822 16.6566 11.1813 16.6677 11.188L16.6679 11.1881L23.9999 7.51081V6.74748L15.8942 10.822Z" fill="white"/>
<path d="M1 8H2V12L1 11.5V8Z" fill="white"/>
<path d="M6 16H7V18.5L6 19V16Z" fill="white"/>
<path d="M17 16H18V18L17 17.5V16Z" fill="white"/>
<path d="M23 8H22V12L23 11.5V8Z" fill="white"/>
</svg>
