<svg width="24" height="24" viewBox="0 0 24 24" fill="none" xmlns="http://www.w3.org/2000/svg">
<path d="M18.4878 6.11998V8.66221C18.4774 9.61266 18.0947 10.5221 17.4203 11.1992C16.746 11.8763 15.8324 12.2684 14.8718 12.293H9.09045C8.31959 12.3082 7.58532 12.621 7.04453 13.1646C6.50373 13.7082 6.1993 14.4394 6.19629 15.2021V20.6534C6.19629 22.2047 7.56018 23.1184 9.09045 23.5633C10.9726 24.1456 12.9897 24.1456 14.8718 23.5633C16.3293 23.1459 17.766 22.3059 17.766 20.6542V18.4711H11.9846V17.7434H20.6602C22.3421 17.7434 22.9694 16.5829 23.5543 14.8412C24.1484 12.9458 24.1484 10.9168 23.5543 9.02134C23.1384 7.36538 22.3447 6.11913 20.6602 6.11913L18.4878 6.11998ZM15.2366 19.9265C15.4556 19.9233 15.6706 19.9846 15.8543 20.1027C16.0379 20.2207 16.1818 20.3902 16.2677 20.5895C16.3537 20.7887 16.3777 21.0088 16.3367 21.2216C16.2957 21.4344 16.1916 21.6304 16.0377 21.7844C15.8838 21.9385 15.6869 22.0438 15.4723 22.0869C15.2577 22.1299 15.0349 22.1088 14.8325 22.0262C14.63 21.9436 14.457 21.8032 14.3354 21.623C14.2139 21.4428 14.1494 21.2308 14.15 21.0142C14.1489 20.8721 14.1761 20.7312 14.2301 20.5995C14.2842 20.4678 14.3639 20.3479 14.4649 20.2468C14.5658 20.1457 14.686 20.0653 14.8184 20.0102C14.9508 19.955 15.093 19.9263 15.2366 19.9257V19.9265Z" fill="white"/>
<path d="M11.8559 0.000276879C10.9289 0.00140584 10.0037 0.0796801 9.08998 0.234271C6.64034 0.661975 6.19582 1.55767 6.19582 3.2102V5.39158H11.9841V6.11927H4.02347C3.17144 6.1037 2.34126 6.3865 1.6796 6.91772C1.01794 7.44893 0.567371 8.19438 0.407503 9.02235C-0.135834 10.9248 -0.135834 12.9389 0.407503 14.8414C0.819098 16.5359 1.80173 17.7436 3.48363 17.7436H5.47401V15.1285C5.49516 14.1883 5.88353 13.2927 6.55767 12.6295C7.23181 11.9664 8.13936 11.5871 9.08998 11.5714H14.8714C15.2546 11.5686 15.6335 11.4911 15.9864 11.3434C16.3393 11.1956 16.6593 10.9805 16.9281 10.7103C17.1969 10.4401 17.4092 10.1202 17.5529 9.76879C17.6966 9.41739 17.7688 9.04141 17.7655 8.66236V3.2102C17.7169 2.45571 17.3994 1.74271 16.8695 1.19787C16.3396 0.653019 15.6317 0.311604 14.8714 0.234271C13.8746 0.0729866 12.8659 -0.00528607 11.8559 0.000276879V0.000276879ZM8.72604 1.75566C8.94473 1.75244 9.15946 1.81359 9.34293 1.93135C9.52641 2.04911 9.67035 2.21817 9.75647 2.41704C9.84259 2.61591 9.86699 2.83561 9.82659 3.04823C9.78618 3.26085 9.68279 3.45679 9.52955 3.61115C9.37631 3.76552 9.18013 3.87133 8.96595 3.91516C8.75177 3.95898 8.52925 3.93883 8.32667 3.85728C8.12409 3.77572 7.9506 3.63644 7.82823 3.45712C7.70586 3.2778 7.64015 3.06655 7.63943 2.85021C7.63735 2.5627 7.75053 2.28608 7.95419 2.08094C8.15785 1.87579 8.43539 1.75883 8.72604 1.75566V1.75566Z" fill="white"/>
</svg>
