<svg width="24" height="24" viewBox="0 0 24 24" fill="none" xmlns="http://www.w3.org/2000/svg">
<path d="M19.7318 8.34175C19.4764 8.25639 19.2188 8.17731 18.9593 8.10459C19.0029 7.93108 19.043 7.75967 19.0786 7.59127C19.6635 4.82597 19.2811 2.59818 17.9753 1.86469C16.7233 1.16151 14.6757 1.89473 12.6077 3.64783C12.4039 3.82091 12.2047 3.99899 12.0101 4.18188C11.8798 4.06026 11.7473 3.941 11.6125 3.82417C9.44518 1.94971 7.2728 1.15968 5.96837 1.89528C4.71746 2.60065 4.34705 4.69492 4.87355 7.31566C4.92594 7.57522 4.98508 7.83344 5.05093 8.09007C4.74343 8.17518 4.44671 8.26577 4.16274 8.36221C1.62174 9.2252 -0.000976562 10.5776 -0.000976562 11.9804C-0.000976562 13.4292 1.74109 14.8824 4.38765 15.7635C4.60221 15.8347 4.81856 15.9006 5.03649 15.9613C4.96571 16.2377 4.90288 16.5159 4.84805 16.7957C4.34612 19.371 4.73809 21.4158 5.98562 22.1167C7.27412 22.8405 9.43674 22.0966 11.5425 20.3035C11.7132 20.1577 11.8802 20.0078 12.0433 19.8539C12.254 20.052 12.4703 20.2442 12.692 20.4305C14.7318 22.1402 16.7463 22.8306 17.9926 22.1278C19.2799 21.4019 19.6983 19.2053 19.1551 16.5327C19.1124 16.3234 19.0644 16.115 19.0112 15.9079C19.1631 15.8641 19.3122 15.819 19.4575 15.772C22.2089 14.8841 23.999 13.4485 23.999 11.9804C23.999 10.5725 22.3239 9.21095 19.7318 8.34175V8.34175ZM19.1351 14.8241C19.0038 14.8664 18.8692 14.9072 18.732 14.9469C18.4282 14.0103 18.0183 13.0143 17.5167 11.9852C17.9954 10.9807 18.3895 9.99741 18.6847 9.06684C18.9302 9.13607 19.1685 9.20903 19.3981 9.28602C21.6191 10.0308 22.9738 11.1319 22.9738 11.9804C22.9738 12.8841 21.5107 14.0573 19.1351 14.8241V14.8241ZM18.1494 16.7267C18.3896 17.9084 18.4238 18.9769 18.2647 19.8122C18.1218 20.5628 17.8344 21.0631 17.4789 21.2636C16.7226 21.69 15.1051 21.1357 13.3607 19.6735C13.1545 19.5003 12.9533 19.3215 12.7573 19.1374C13.4336 18.417 14.1094 17.5795 14.7691 16.6493C15.9293 16.549 17.0254 16.385 18.0195 16.1612C18.0684 16.3536 18.1119 16.5422 18.1494 16.7267V16.7267ZM8.18115 21.1899C7.44221 21.444 6.85365 21.4513 6.49787 21.2515C5.74084 20.8262 5.42612 19.1844 5.8554 16.982C5.90643 16.7218 5.96486 16.463 6.03062 16.2059C7.01368 16.4178 8.10184 16.5701 9.2648 16.662C9.92893 17.5722 10.6243 18.4088 11.3251 19.1413C11.1761 19.2817 11.0237 19.4185 10.8678 19.5516C9.93662 20.3444 9.00352 20.9069 8.18115 21.1899V21.1899ZM4.71934 14.8185C3.54905 14.4289 2.58259 13.9225 1.92015 13.3699C1.32484 12.8734 1.02437 12.3804 1.02437 11.9804C1.02437 11.1291 2.32721 10.0433 4.50024 9.30528C4.76396 9.21579 5.03996 9.13132 5.32637 9.05205C5.62674 10.0036 6.02068 10.9986 6.49609 12.0047C6.01449 13.0256 5.61493 14.0365 5.31165 14.9993C5.11272 14.9438 4.91522 14.8835 4.71934 14.8185V14.8185ZM5.87977 7.1238C5.42874 4.87848 5.72827 3.18474 6.48212 2.75964C7.28499 2.30686 9.06043 2.95242 10.9318 4.571C11.0538 4.67678 11.1739 4.78471 11.2919 4.89473C10.5946 5.62412 9.90559 6.4545 9.24737 7.35932C8.11862 7.46123 7.03815 7.62488 6.04477 7.84414C5.98357 7.60545 5.92855 7.36529 5.87977 7.12389V7.1238ZM16.2323 9.61395C15.9977 9.21916 15.7543 8.82934 15.5025 8.44476C16.2682 8.5391 17.0019 8.6643 17.6909 8.81735C17.4841 9.46318 17.2262 10.1383 16.9228 10.8305C16.701 10.4206 16.4708 10.015 16.2323 9.61395V9.61395ZM12.0106 5.6085C12.4834 6.10757 12.9571 6.66472 13.4229 7.26927C12.4779 7.2258 11.5313 7.22562 10.5863 7.26872C11.0526 6.66975 11.5303 6.11333 12.0106 5.6085ZM7.76171 9.6208C7.52624 10.0186 7.30034 10.4217 7.08418 10.8297C6.78568 10.14 6.53021 9.46172 6.32162 8.80676C7.00637 8.65754 7.73659 8.53554 8.49746 8.44294C8.24278 8.82986 7.99746 9.22256 7.76171 9.62071V9.6208ZM8.5193 15.5888C7.73321 15.5034 6.99202 15.3877 6.30746 15.2425C6.51934 14.5758 6.78043 13.8831 7.0854 13.1786C7.30241 13.5869 7.52926 13.9903 7.76574 14.3882C8.00893 14.7974 8.26074 15.1981 8.5193 15.5888ZM12.0389 18.4225C11.5529 17.9119 11.0682 17.3469 10.5948 16.7392C11.0544 16.7568 11.5229 16.7657 11.999 16.7657C12.4882 16.7657 12.9718 16.755 13.4477 16.7344C12.9804 17.353 12.5086 17.9188 12.0389 18.4225ZM16.9324 13.1426C17.2532 13.8549 17.5236 14.5439 17.7383 15.1992C17.0425 15.3539 16.2912 15.4784 15.4996 15.5709C15.7532 15.1792 15.9989 14.7826 16.2363 14.3814C16.4778 13.9735 16.7099 13.5605 16.9324 13.1426V13.1426ZM15.3482 13.8824C14.9847 14.4976 14.6007 15.1011 14.1969 15.6919C13.4654 15.7424 12.7323 15.7675 11.999 15.7671C11.2521 15.7671 10.5256 15.7445 9.82609 15.7003C9.41173 15.1108 9.02042 14.5062 8.65299 13.8879H8.65309C8.28739 13.2728 7.9458 12.6445 7.62905 12.0042C7.94499 11.3638 8.28554 10.7351 8.64999 10.1196L8.6499 10.1197C9.01421 9.50402 9.4024 8.90205 9.81362 8.31509C10.5273 8.26248 11.2592 8.23509 11.9989 8.23509H11.999C12.7421 8.23509 13.4749 8.26276 14.1885 8.31573C14.5955 8.90181 14.9812 9.50171 15.3449 10.1143C15.7105 10.7285 16.0556 11.354 16.3795 11.99C16.0589 12.6326 15.7149 13.2637 15.3482 13.8824V13.8824ZM17.4632 2.72987C18.2669 3.18136 18.5794 5.00203 18.0745 7.38963C18.0422 7.54196 18.0061 7.69711 17.9667 7.85446C16.9709 7.63054 15.8896 7.46406 14.7576 7.36059C14.0982 6.44583 13.4148 5.61416 12.7289 4.89418C12.9086 4.72538 13.0927 4.56095 13.2809 4.40105C15.0527 2.89908 16.7087 2.30604 17.4632 2.72987V2.72987ZM11.999 9.89276C13.1826 9.89276 14.1421 10.8274 14.1421 11.9804C14.1421 13.1333 13.1826 14.068 11.999 14.068C10.8154 14.068 9.8559 13.1333 9.8559 11.9804C9.8559 10.8274 10.8154 9.89276 11.999 9.89276V9.89276Z" fill="white"/>
</svg>
