<svg width="24" height="24" viewBox="0 0 24 24" fill="none" xmlns="http://www.w3.org/2000/svg">
<path d="M16.6295 16.4439C17.5151 16.3538 18.187 15.6032 18.1565 14.7023C18.126 13.8016 17.3624 13.0809 16.4462 13.0809H16.3852C15.4383 13.111 14.7053 13.8916 14.7359 14.8224C14.7665 15.2728 14.9497 15.6632 15.2245 15.9334C14.1862 17.9453 12.598 19.4165 10.2158 20.6476C8.59715 21.4884 6.91744 21.7887 5.23772 21.5785C3.86334 21.3983 2.79441 20.7979 2.12241 19.8069C1.14516 18.3356 1.05356 16.7441 1.87819 15.1528C2.4585 14.0117 3.37462 13.171 3.95494 12.7506C3.83278 12.3602 3.6495 11.6997 3.55791 11.2193C-0.870564 14.3721 -0.412407 18.6359 0.931405 20.6476C1.93922 22.1491 3.9855 23.0799 6.24553 23.0799C6.85631 23.0799 7.46709 23.0198 8.07797 22.8697C11.9872 22.119 14.9497 19.8369 16.6295 16.4439V16.4439ZM22.0047 12.7206C19.6836 10.0482 16.263 8.57692 12.3537 8.57692H11.8651C11.5902 8.03645 11.0099 7.67607 10.3686 7.67607H10.3074C9.36075 7.70612 8.62781 8.48678 8.65828 9.41768C8.68884 10.3184 9.45234 11.0391 10.3686 11.0391H10.4296C11.1015 11.0091 11.6818 10.5887 11.9261 10.0182H12.4759C14.797 10.0182 16.9959 10.6787 18.9812 11.9699C20.5082 12.9608 21.6077 14.252 22.2185 15.8133C22.7377 17.0745 22.7071 18.3055 22.1573 19.3565C21.3022 20.9479 19.8668 21.8187 17.9733 21.8187C16.7516 21.8187 15.5911 21.4583 14.9802 21.1881C14.6443 21.4884 14.0334 21.9688 13.6058 22.2691C14.9192 22.8696 16.263 23.2 17.5457 23.2C20.4776 23.2 22.6461 21.6085 23.4707 20.0171C24.3563 18.2755 24.2952 15.2728 22.0047 12.7206V12.7206ZM6.48984 16.9543C6.5204 17.8551 7.28391 18.5757 8.20012 18.5757H8.26125C9.20803 18.5457 9.94097 17.765 9.9104 16.8342C9.87994 15.9333 9.11634 15.2128 8.20012 15.2128H8.13909C8.07797 15.2128 7.98628 15.2128 7.92534 15.2427C6.67312 13.2009 6.15394 10.979 6.33722 8.57683C6.45928 6.77522 7.07015 5.2138 8.13909 3.92261C9.02475 2.81162 10.735 2.27115 11.8957 2.24119C15.1329 2.1811 16.5072 6.1446 16.5989 7.73607C16.9959 7.82612 17.6678 8.03636 18.126 8.1865C17.7594 3.32223 14.7053 0.799957 11.7735 0.799957C9.02475 0.799957 6.48984 2.75171 5.48194 5.63427C4.07709 9.47768 4.99331 13.171 6.70359 16.0836C6.55097 16.2937 6.45928 16.624 6.48984 16.9544V16.9543Z" fill="white"/>
</svg>
