<svg width="24" height="24" viewBox="0 0 24 24" fill="none" xmlns="http://www.w3.org/2000/svg">
<path fill-rule="evenodd" clip-rule="evenodd" d="M12.4088 2.29126V2.83513H0.800353V11.3201L0.800598 11.3201V2.83513H12.409V2.29126L12.4088 2.29126ZM11.7185 11.3201V11.8641H0.800353V21.1649L0.800598 21.1649V11.8641H11.7188V11.3201L11.7185 11.3201ZM12.511 21.1649V21.3909L12.5113 21.3906V21.1649L12.511 21.1649ZM13.406 7.73043L17.8297 14.0668L17.8298 14.0667L13.4063 7.73043L13.406 7.73043ZM22.9688 7.7301L18.1618 14.4746L23.429 21.7086H23.4293L18.162 14.4746L22.969 7.7301L22.9688 7.7301ZM17.8295 14.8827L17.8294 14.8825L12.8945 21.7086H12.8948L17.8295 14.8827ZM0 22H12.8005L13.042 21.9998L17.8302 15.3765L22.6433 21.9998H24L18.5193 14.4728L23.5326 7.43884H21.6798L21.9806 7.75643L17.8326 13.5642L13.5565 7.43917H12.1796L17.1663 14.473L12.528 20.8736H1.08985V12.1554H12.008V11.0288H1.08985V3.12639H12.6983V2H0V22Z" fill="#333333"/>
</svg>
