<svg width="24" height="24" viewBox="0 0 24 24" fill="none" xmlns="http://www.w3.org/2000/svg">
<path fill-rule="evenodd" clip-rule="evenodd" d="M19.8759 4.6283C20.2554 5.39147 19.6861 5.73272 19.2194 6.01243C18.9319 6.18478 18.6833 6.33376 18.7197 6.54367C18.8952 7.53608 18.7756 9.00964 18.6406 10.4598C18.583 11.069 18.6558 11.8889 18.738 12.8136C18.7757 13.2376 18.8153 13.6837 18.8452 14.1416C19.2791 14.1707 19.5439 15.5085 18.8936 15.637C18.8756 17.6553 18.451 19.6904 16.7038 20.9421C16.8426 20.9703 16.9778 21.0674 17.1171 21.2683C17.2762 21.4934 17.284 21.6482 17.0293 21.7645C16.1562 22.1546 15.3664 21.7252 15.4514 21.516C14.5693 21.7465 13.3386 21.8765 12.1197 21.9035H12.1111H12.1034C10.7608 21.8737 9.26119 21.7191 8.30655 21.4427C8.36121 21.4733 8.41751 21.5033 8.47568 21.5319C8.80258 21.6951 7.93371 22.2766 6.96161 21.8415C6.70611 21.726 6.71385 21.5704 6.873 21.3461C7.04298 21.1008 7.20699 21.0102 7.37891 21.0106C5.55302 19.7657 5.1145 17.6928 5.09814 15.6373C4.44323 15.5105 4.71116 14.1638 5.148 14.1414C5.17872 13.6791 5.21939 13.2288 5.25802 12.8011C5.34109 11.8815 5.41473 11.0663 5.35974 10.4598C5.21608 9.00964 5.0965 7.53608 5.27974 6.54367C5.3161 6.33404 5.06824 6.18627 4.78124 6.01515C4.31443 5.73684 3.74403 5.39676 4.1244 4.6283C4.45616 3.95755 5.09637 4.08419 5.60547 4.18489C5.90296 4.24374 6.15568 4.29373 6.27593 4.17059C7.94227 2.48951 9.96734 2.03849 11.5614 2H12.4389C14.0244 2.07782 16.0494 2.49621 17.7235 4.17059C17.8441 4.29372 18.0958 4.24386 18.3924 4.18512C18.8999 4.08459 19.5387 3.95805 19.8759 4.6283ZM13.6251 10.6146C13.5906 10.892 13.1758 11.0823 12.6527 11.169C12.7842 11.33 12.7829 11.7262 12.5017 11.9015C12.3556 11.9937 11.7734 11.9364 11.4871 11.9083L11.4178 11.9015C11.1147 11.8697 11.144 11.3445 11.2036 11.1458C10.7582 11.0496 10.4156 10.8608 10.3647 10.5677C10.2895 10.1283 10.5551 9.81381 11.2944 9.60888C11.4419 9.42971 11.678 9.3643 11.8797 9.35871C12.2401 9.35045 12.4842 9.44505 12.639 9.57812C13.1455 9.76846 13.6792 10.1683 13.6251 10.6146ZM9.21891 5.3814C8.39735 5.28851 7.01834 6.0324 6.81102 7.61474C6.58735 9.25816 8.58059 10.8865 10.4938 9.25816C11.5227 8.38206 11.8814 5.68347 9.21891 5.3814ZM14.7676 5.3814C12.1043 5.68347 12.463 8.38206 13.4919 9.25816C15.4042 10.8865 17.3975 9.25816 17.1738 7.61474C16.9751 6.03324 15.5961 5.28851 14.7668 5.3814H14.7676ZM19.0698 4.85353C18.8384 4.57405 18.4237 4.65187 18.3841 4.81504C18.3639 4.88473 18.3916 4.92023 18.4361 4.97733C18.4957 5.05394 18.5857 5.16944 18.631 5.45852C18.6629 5.64428 19.3485 5.18657 19.0698 4.85353ZM5.55411 4.97703C5.59867 4.91984 5.62629 4.88439 5.60571 4.81504C5.55754 4.65187 5.14375 4.57405 4.92008 4.85353C4.64135 5.18657 5.32698 5.64428 5.35881 5.45852C5.40415 5.1695 5.49436 5.05372 5.55411 4.97703ZM9.04215 8.58953C8.80122 8.58953 8.57015 8.49643 8.39979 8.33072C8.22942 8.16501 8.13371 7.94025 8.13371 7.7059C8.13371 7.47154 8.22942 7.24679 8.39979 7.08108C8.57015 6.91536 8.80122 6.82227 9.04215 6.82227C9.28309 6.82227 9.51415 6.91536 9.68452 7.08108C9.85489 7.24679 9.9506 7.47154 9.9506 7.7059C9.9506 7.94025 9.85489 8.16501 9.68452 8.33072C9.51415 8.49643 9.28309 8.58953 9.04215 8.58953ZM14.9488 8.59036C14.7078 8.59036 14.4768 8.49727 14.3064 8.33156C14.136 8.16584 14.0403 7.94109 14.0403 7.70673C14.0403 7.47238 14.136 7.24762 14.3064 7.08191C14.4768 6.9162 14.7078 6.8231 14.9488 6.8231C15.1897 6.8231 15.4208 6.9162 15.5911 7.08191C15.7615 7.24762 15.8572 7.47238 15.8572 7.70673C15.8572 7.94109 15.7615 8.16584 15.5911 8.33156C15.4208 8.49727 15.1897 8.59036 14.9488 8.59036ZM14.7092 7.60566C14.7482 7.60774 14.7872 7.60207 14.8239 7.58898C14.8606 7.57589 14.8941 7.55567 14.9225 7.52956C14.9508 7.50344 14.9734 7.47197 14.9889 7.43708C15.0043 7.40218 15.0123 7.36459 15.0123 7.3266C15.0123 7.28861 15.0043 7.25102 14.9889 7.21613C14.9734 7.18123 14.9508 7.14976 14.9225 7.12364C14.8941 7.09753 14.8606 7.07731 14.8239 7.06422C14.7872 7.05114 14.7482 7.04546 14.7092 7.04754C14.6359 7.05145 14.5668 7.08255 14.5163 7.13446C14.4658 7.18636 14.4376 7.25512 14.4376 7.3266C14.4376 7.39808 14.4658 7.46684 14.5163 7.51874C14.5668 7.57065 14.6359 7.60175 14.7092 7.60566ZM9.39672 7.588C9.36005 7.60109 9.32103 7.60677 9.28203 7.60469C9.20866 7.60078 9.13961 7.56967 9.08909 7.51777C9.03857 7.46586 9.01042 7.3971 9.01042 7.32562C9.01042 7.25415 9.03857 7.18539 9.08909 7.13348C9.13961 7.08158 9.20866 7.05047 9.28203 7.04656C9.32103 7.04448 9.36005 7.05016 9.39672 7.06325C9.43338 7.07633 9.46692 7.09655 9.49528 7.12267C9.52365 7.14879 9.54624 7.18025 9.56168 7.21515C9.57711 7.25004 9.58508 7.28763 9.58508 7.32562C9.58508 7.36361 9.57711 7.4012 9.56168 7.4361C9.54624 7.471 9.52365 7.50246 9.49528 7.52858C9.46692 7.5547 9.43338 7.57492 9.39672 7.588Z" fill="#333333"/>
</svg>
