<svg width="24" height="24" viewBox="0 0 24 24" fill="none" xmlns="http://www.w3.org/2000/svg">
<path d="M20 4.8C19.9986 5.862 19.6351 6.89339 18.9666 7.73191C18.2982 8.57044 17.3629 9.1685 16.3077 9.432V18C16.3077 19.5913 15.6593 21.1174 14.5053 22.2426C13.3512 23.3679 11.7859 24 10.1538 24C8.52174 24 6.95649 23.3679 5.80242 22.2426C4.64835 21.1174 4 19.5913 4 18V12L10.1538 18H6.46154C6.46154 18.9548 6.85055 19.8705 7.54299 20.5456C8.23543 21.2207 9.17459 21.6 10.1538 21.6C11.1331 21.6 12.0723 21.2207 12.7647 20.5456C13.4571 19.8705 13.8462 18.9548 13.8462 18V9.432C11.6677 8.88 10.1538 6.96 10.1538 4.764C10.1538 2.112 12.3692 0 15.0769 0C17.8092 0 20 2.148 20 4.8ZM15.0769 7.2C15.7298 7.2 16.3559 6.94714 16.8175 6.49706C17.2791 6.04697 17.5385 5.43652 17.5385 4.8C17.5385 4.16348 17.2791 3.55303 16.8175 3.10294C16.3559 2.65286 15.7298 2.4 15.0769 2.4C14.4241 2.4 13.798 2.65286 13.3364 3.10294C12.8747 3.55303 12.6154 4.16348 12.6154 4.8C12.6154 5.43652 12.8747 6.04697 13.3364 6.49706C13.798 6.94714 14.4241 7.2 15.0769 7.2Z" fill="#333333"/>
</svg>
