<svg width="24" height="24" viewBox="0 0 24 24" fill="none" xmlns="http://www.w3.org/2000/svg">
<path d="M12.3614 8.79905L9.37971 0H22.0475L19.0555 8.82464C18.9267 8.85544 18.8002 8.89466 18.6766 8.94206L15.7209 2.91248L12.7566 8.90639C12.6274 8.86171 12.4954 8.82584 12.3614 8.79905ZM2.61954 23.2028C6.60396 26.0015 11.0235 20.586 17.0434 19.9038C20.5005 19.699 22.8502 17.5827 21.5114 14.3065C19.0221 15.8398 16.6956 13.8306 16.7119 11.8145H14.8203C14.7582 13.6145 13.4043 15.0306 11.3057 14.82C9.66302 17.2775 7.75914 18.6582 5.59886 19.36C4.13875 18.6862 2.76471 17.0448 3.38768 14.8526C3.11659 14.8223 2.85083 14.7556 2.5976 14.6542C0.589379 18.4042 0.341223 21.3678 2.61954 23.2028V23.2028ZM5.58583 11.8148C5.58583 10.3905 4.03338 9.49552 2.79818 10.2076C1.56297 10.9198 1.56288 12.7098 2.79818 13.4219C4.03338 14.1341 5.58583 13.2391 5.58583 11.8148ZM13.6206 11.7971C13.6206 10.3729 12.0681 9.47784 10.8329 10.19C9.59768 10.9022 9.59763 12.6922 10.8329 13.4042C12.0681 14.1164 13.6205 13.2214 13.6205 11.7971H13.6206ZM21.6251 11.7971C21.6251 10.3729 20.0726 9.47784 18.8374 10.19C17.6022 10.9022 17.6022 12.6922 18.8374 13.4042C20.0727 14.1164 21.6251 13.2214 21.6251 11.7971H21.6251Z" fill="#333333"/>
</svg>
