<svg width="24" height="24" viewBox="0 0 24 24" fill="none" xmlns="http://www.w3.org/2000/svg">
<path d="M23.8665 13.3152L20.9124 11.8881L23.7108 10.5793C23.9279 10.4775 24.0553 10.209 23.9052 9.95865L23.6144 9.622C23.4267 9.41669 23.2229 9.26706 22.9753 9.36447L20.8961 10.1482C20.8507 10.1653 20.801 10.1674 20.7543 10.1542L19.9495 9.92622C19.9201 9.91793 19.8891 9.9174 19.8595 9.9247C19.8299 9.932 19.8027 9.94686 19.7806 9.96784L18.9197 10.7851C18.7312 9.70165 18.2899 8.67797 17.6315 7.79716L18.8901 7.78731C18.9167 7.78709 18.9428 7.77978 18.9657 7.76614C18.9885 7.7525 19.0074 7.73301 19.0202 7.70969L19.4657 6.90156C19.4889 6.85952 19.5255 6.82648 19.5697 6.80772L21.6292 5.92957C21.7556 5.87566 21.8335 5.61288 21.8092 5.44244L21.7421 4.82744C21.6874 4.65082 21.4393 4.49538 21.3208 4.53916L18.2229 5.61897L19.2762 2.7146C19.3577 2.48913 19.258 2.20929 18.9748 2.13832L18.5311 2.10598C18.2532 2.0936 18.0033 2.13176 17.8971 2.37579L16.9811 4.40013C16.961 4.44434 16.9274 4.48097 16.8851 4.50466L16.1547 4.91247C16.1281 4.92736 16.1058 4.9489 16.0901 4.975C16.0743 5.00111 16.0656 5.03086 16.0647 5.06135L16.0338 6.24841C15.1344 5.61533 14.0981 5.20363 13.0094 5.04682L13.8931 4.14926C13.9118 4.13028 13.9251 4.10667 13.9317 4.08085C13.9382 4.05503 13.9377 4.02794 13.9303 4.00235L13.6739 3.11595C13.6606 3.06981 13.6631 3.02054 13.681 2.97598L14.5163 0.898762C14.5677 0.771263 14.437 0.530325 14.2992 0.427013L13.8169 0.0394512C13.6532 -0.0466111 13.3678 0.0187325 13.3151 0.133482L11.888 3.08773L10.5792 0.289201C10.4773 0.0720762 10.2088 -0.0552361 9.95854 0.0947636L9.62188 0.385669C9.41657 0.573357 9.26694 0.777075 9.36444 1.02476L10.1481 3.10385C10.1653 3.14932 10.1673 3.19901 10.1541 3.2457L9.92619 4.05063C9.91786 4.07995 9.91732 4.11094 9.92462 4.14053C9.93192 4.17012 9.94681 4.1973 9.96782 4.21938L10.7849 5.08029C9.70158 5.26876 8.67793 5.71008 7.79713 6.36841L7.7872 5.11001C7.78702 5.08336 7.77974 5.05723 7.76611 5.03433C7.75248 5.01143 7.733 4.99257 7.70967 4.97969L6.90154 4.53429C6.85951 4.51112 6.82644 4.47455 6.8076 4.43041L5.92954 2.37073C5.87564 2.24435 5.61286 2.16654 5.44233 2.19092L4.82733 2.25785C4.6508 2.3127 4.49527 2.56067 4.53905 2.67917L5.61895 5.77722L2.71458 4.72385C2.48902 4.64229 2.20918 4.74213 2.13821 5.02526L2.10586 5.46897C2.09349 5.74675 2.13164 5.99679 2.37567 6.10291L4.40002 7.01885C4.44426 7.03889 4.4809 7.07261 4.50455 7.11503L4.91255 7.84534C4.94273 7.89944 4.99936 7.93366 5.06133 7.93525L6.2482 7.96619C5.6152 8.86562 5.20356 9.90184 5.0468 10.9905L4.14914 10.1069C4.13016 10.0882 4.10655 10.0749 4.08073 10.0683C4.05492 10.0618 4.02782 10.0623 4.00223 10.0697L3.11583 10.3261C3.06973 10.3394 3.02048 10.337 2.97596 10.319L0.89874 9.48362C0.771146 9.43234 0.530303 9.56312 0.426991 9.70084L0.0394288 10.1832C-0.0466336 10.3468 0.0188038 10.6321 0.133554 10.6849L3.08761 12.112L0.289178 13.4207C0.0720538 13.5226 -0.0552585 13.7911 0.0947412 14.0414L0.385647 14.3781C0.573334 14.5833 0.777146 14.7331 1.02474 14.6356L3.10392 13.8519C3.14935 13.8348 3.19906 13.8327 3.24577 13.8459L4.05061 14.0739C4.11023 14.0908 4.17436 14.0748 4.21936 14.0323L5.08036 13.2151C5.26882 14.2984 5.71014 15.3221 6.36848 16.2029L5.10998 16.2128C5.08336 16.213 5.05727 16.2203 5.0344 16.234C5.01153 16.2476 4.99271 16.2671 4.97986 16.2904L4.53436 17.0985C4.51111 17.1405 4.47449 17.1736 4.4303 17.1925L2.37089 18.0705C2.24433 18.1245 2.16652 18.3872 2.19089 18.5577L2.25783 19.1727C2.31267 19.3493 2.56064 19.5047 2.67924 19.4609L5.7772 18.3811L4.72383 21.2855C4.64227 21.511 4.74211 21.7908 5.02523 21.8618L5.46895 21.8941C5.74673 21.9065 5.99676 21.8684 6.10289 21.6243L7.01882 19.6C7.03892 19.5558 7.07263 19.5192 7.11501 19.4954L7.84532 19.0875C7.89942 19.0573 7.93363 19.0007 7.93523 18.9388L7.96617 17.7517C8.86561 18.3848 9.90186 18.7965 10.9905 18.9533L10.1068 19.8509C10.0882 19.8699 10.0749 19.8935 10.0684 19.9193C10.0619 19.9451 10.0623 19.9722 10.0697 19.9978L10.3261 20.8842C10.3394 20.9303 10.3369 20.9796 10.319 21.0241L9.4836 23.1013C9.43232 23.2288 9.5631 23.4698 9.70091 23.5731L10.1831 23.9606C10.3467 24.0466 10.6319 23.9812 10.6849 23.8665L12.1118 20.9123L13.4208 23.7107C13.5226 23.9279 13.791 24.0553 14.0414 23.9053L14.378 23.6143C14.5832 23.4267 14.733 23.2228 14.6355 22.9753L13.8518 20.8962C13.8347 20.8507 13.8326 20.801 13.8459 20.7543L14.0737 19.9494C14.0906 19.8898 14.0748 19.8256 14.0322 19.7806L13.215 18.9196C14.2984 18.7312 15.3221 18.2898 16.2028 17.6314L16.2128 18.8901C16.2132 18.9443 16.2428 18.9941 16.2903 19.0202L17.0984 19.4657C17.1404 19.4889 17.1734 19.5254 17.1924 19.5696L18.0704 21.6292C18.1243 21.7557 18.3871 21.8335 18.5576 21.8091L19.1726 21.7422C19.3492 21.6873 19.5046 21.4394 19.4609 21.3209L18.3809 18.2228L21.2853 19.2762C21.511 19.3577 21.7908 19.2579 21.8618 18.9748L21.8941 18.531C21.9065 18.2533 21.8682 18.0032 21.6243 17.8971L19.6 16.9811C19.5557 16.961 19.5191 16.9274 19.4953 16.885L19.0874 16.1547C19.0726 16.1281 19.051 16.1058 19.0249 16.09C18.9989 16.0742 18.9691 16.0655 18.9386 16.0647L17.7516 16.0337C18.3846 15.1343 18.7963 14.0982 18.9532 13.0096L19.8508 13.8931C19.8698 13.9118 19.8934 13.9251 19.9192 13.9316C19.945 13.9382 19.9721 13.9377 19.9976 13.9304L20.8841 13.674C20.9302 13.6606 20.9795 13.6631 21.024 13.681L23.1012 14.5163C23.2287 14.5677 23.4697 14.4369 23.573 14.2992L23.9605 13.8169C24.0466 13.6533 23.9811 13.3681 23.8664 13.3152H23.8665ZM17.0377 11.2165H15.5438C15.4369 10.7312 15.2309 10.2731 14.9388 9.87109L15.9859 8.82391C16.5268 9.502 16.8994 10.3203 17.0377 11.2164V11.2165ZM13.9514 8.94053C13.5329 8.67248 13.0635 8.49387 12.5727 8.41591V6.93531C13.4532 7.03352 14.2927 7.36087 15.0072 7.88472L13.9514 8.94053ZM13.7696 12.0001C13.7696 12.9773 12.9774 13.7696 12 13.7696C11.0228 13.7696 10.2305 12.9773 10.2305 12.0001C10.2305 11.0228 11.0227 10.2305 12 10.2305C12.9774 10.2305 13.7696 11.0227 13.7696 12.0001ZM11.2165 6.96241V8.45631C10.7312 8.56328 10.2732 8.76923 9.87116 9.06128L8.82398 8.01409C9.50207 7.47316 10.3202 7.10069 11.2165 6.96241ZM8.94051 10.0487C8.67252 10.4672 8.49394 10.9366 8.41598 11.4274H6.93529C7.03356 10.5469 7.36091 9.7074 7.8847 8.99275L8.94051 10.0487ZM6.96239 12.7836H8.45638C8.5633 13.2689 8.76925 13.7269 9.06135 14.1289L8.01417 15.1761C7.47323 14.4981 7.10076 13.6798 6.96248 12.7836H6.96239ZM10.0486 15.0596C10.4672 15.3276 10.9366 15.5062 11.4274 15.5842V17.0648C10.5469 16.9666 9.70746 16.6392 8.99291 16.1154L10.0485 15.0596H10.0486ZM12.7837 17.0377V15.5438C13.269 15.4368 13.7269 15.2309 14.129 14.9388L15.1761 15.9859C14.4981 16.5269 13.6798 16.8994 12.7836 17.0377H12.7837ZM15.0597 13.9515C15.3276 13.5329 15.5062 13.0635 15.5842 12.5727H17.0649C16.9666 13.4532 16.6392 14.2926 16.1155 15.0073L15.0597 13.9515Z" fill="#333333"/>
</svg>
