<svg width="24" height="24" viewBox="0 0 24 24" fill="none" xmlns="http://www.w3.org/2000/svg">
<path d="M11.9996 23.9999C11.6766 23.9999 11.3752 23.9117 11.0953 23.7574L8.23148 22.0155C7.80085 21.773 8.01617 21.6848 8.14535 21.6407C8.7267 21.4423 8.83435 21.3982 9.43723 21.0453C9.5019 21.0013 9.58803 21.0233 9.65254 21.0674L11.8489 22.4124C11.935 22.4565 12.0427 22.4565 12.1073 22.4124L20.6986 17.3192C20.7848 17.2751 20.8278 17.1869 20.8278 17.0767V6.91214C20.8278 6.8019 20.7848 6.71371 20.6986 6.66962L12.1073 1.59838C12.0211 1.55428 11.9135 1.55428 11.8489 1.59838L3.25752 6.6697C3.17139 6.7138 3.12833 6.82404 3.12833 6.91223V17.0767C3.12833 17.1649 3.17139 17.2751 3.25752 17.3192L5.60458 18.7082C6.87501 19.3696 7.67158 18.598 7.67158 17.8263V7.79405C7.67158 7.66177 7.77932 7.52948 7.93004 7.52948H9.02822C9.1574 7.52948 9.28659 7.63972 9.28659 7.79405V17.8262C9.28659 19.5681 8.36067 20.5823 6.74574 20.5823C6.25052 20.5823 5.86296 20.5823 4.76487 20.0311L2.50392 18.7082C1.94411 18.3774 1.59961 17.7601 1.59961 17.0986V6.93427C1.59961 6.27284 1.94411 5.6555 2.50392 5.3247L11.0953 0.231502C11.6336 -0.0771672 12.3656 -0.0771672 12.9039 0.231502L21.4953 5.3247C22.0551 5.65542 22.3996 6.27276 22.3996 6.93427V17.0987C22.3996 17.7601 22.0551 18.3775 21.4953 18.7082L12.9039 23.8016C12.624 23.9339 12.301 24 11.9996 24V23.9999ZM14.648 17.0104C10.8799 17.0104 10.1048 15.2466 10.1048 13.7473C10.1048 13.615 10.2124 13.4827 10.3632 13.4827H11.4828C11.612 13.4827 11.7197 13.5709 11.7197 13.7032C11.892 14.8717 12.3872 15.445 14.6696 15.445C16.4783 15.445 17.2535 15.0261 17.2535 14.034C17.2535 13.4607 17.0382 13.0418 14.2174 12.7551C11.8704 12.5125 10.4062 11.9834 10.4062 10.0652C10.4062 8.27919 11.8703 7.22089 14.3251 7.22089C17.0811 7.22089 18.4377 8.191 18.6099 10.3077C18.6099 10.3738 18.5884 10.44 18.5454 10.5061C18.5023 10.5502 18.4377 10.5943 18.3731 10.5943H17.2535C17.1457 10.5943 17.0382 10.5061 17.0166 10.3959C16.7582 9.18323 16.0907 8.78637 14.3251 8.78637C12.3442 8.78637 12.1073 9.4919 12.1073 10.021C12.1073 10.6605 12.3872 10.8589 15.0571 11.2116C17.7056 11.5644 18.9544 12.0716 18.9544 13.9678C18.9329 15.9081 17.3827 17.0104 14.648 17.0104V17.0104Z" fill="#333333"/>
</svg>
