<svg width="24" height="24" viewBox="0 0 24 24" fill="none" xmlns="http://www.w3.org/2000/svg">
<path d="M19.7328 8.34177C19.4774 8.25641 19.2198 8.17733 18.9603 8.10461C19.0039 7.93109 19.044 7.75968 19.0796 7.59129C19.6644 4.82598 19.2821 2.59819 17.9763 1.8647C16.7242 1.16153 14.6767 1.89475 12.6087 3.64784C12.4049 3.82093 12.2056 3.999 12.0111 4.18189C11.8808 4.06028 11.7483 3.94102 11.6135 3.82419C9.44616 1.94972 7.27378 1.1597 5.96934 1.89529C4.71844 2.60066 4.34803 4.69494 4.87453 7.31568C4.92691 7.57524 4.98606 7.83346 5.05191 8.09009C4.74441 8.1752 4.44769 8.26579 4.16372 8.36222C1.62272 9.22521 0 10.5776 0 11.9804C0 13.4292 1.74206 14.8824 4.38863 15.7636C4.60319 15.8347 4.81954 15.9006 5.03747 15.9613C4.96669 16.2377 4.90385 16.5159 4.84903 16.7958C4.34709 19.371 4.73906 21.4158 5.98659 22.1167C7.27509 22.8405 9.43772 22.0966 11.5434 20.3035C11.7142 20.1577 11.8812 20.0078 12.0443 19.8539C12.255 20.052 12.4713 20.2442 12.693 20.4305C14.7328 22.1403 16.7473 22.8306 17.9936 22.1278C19.2809 21.4019 19.6993 19.2053 19.1561 16.5328C19.1133 16.3234 19.0654 16.115 19.0122 15.9079C19.1641 15.8641 19.3132 15.819 19.4585 15.772C22.2098 14.8841 24 13.4486 24 11.9804C24 10.5725 22.3249 9.21096 19.7328 8.34177V8.34177ZM19.1361 14.8241C19.0048 14.8664 18.8702 14.9072 18.7329 14.947C18.4292 14.0103 18.0193 13.0143 17.5177 11.9852C17.9963 10.9807 18.3905 9.99743 18.6857 9.06686C18.9312 9.13608 19.1694 9.20905 19.3991 9.28603C21.6201 10.0308 22.9747 11.1319 22.9747 11.9804C22.9747 12.8841 21.5117 14.0573 19.1361 14.8241V14.8241ZM18.1504 16.7267C18.3906 17.9084 18.4248 18.9769 18.2657 19.8122C18.1228 20.5628 17.8354 21.0631 17.4799 21.2636C16.7236 21.69 15.1061 21.1357 13.3617 19.6735C13.1555 19.5003 12.9543 19.3215 12.7582 19.1374C13.4346 18.417 14.1104 17.5795 14.77 16.6493C15.9303 16.549 17.0264 16.385 18.0204 16.1612C18.0694 16.3536 18.1129 16.5423 18.1504 16.7267V16.7267ZM8.18213 21.1899C7.44319 21.444 6.85462 21.4513 6.49884 21.2515C5.74181 20.8262 5.42709 19.1844 5.85637 16.9821C5.9074 16.7218 5.96583 16.463 6.03159 16.2059C7.01466 16.4178 8.10281 16.5701 9.26578 16.662C9.92991 17.5722 10.6252 18.4088 11.326 19.1414C11.1771 19.2817 11.0247 19.4185 10.8688 19.5516C9.93759 20.3444 9.0045 20.907 8.18213 21.1899V21.1899ZM4.72031 14.8186C3.55003 14.4289 2.58356 13.9225 1.92113 13.3699C1.32581 12.8734 1.02534 12.3804 1.02534 11.9804C1.02534 11.1291 2.32819 10.0433 4.50122 9.3053C4.76494 9.2158 5.04094 9.13133 5.32734 9.05207C5.62772 10.0036 6.02166 10.9986 6.49706 12.0047C6.01547 13.0256 5.61591 14.0365 5.31262 14.9993C5.1137 14.9438 4.9162 14.8835 4.72031 14.8186V14.8186ZM5.88075 7.12381C5.42972 4.87849 5.72925 3.18475 6.48309 2.75965C7.28597 2.30688 9.06141 2.95243 10.9327 4.57101C11.0548 4.6768 11.1748 4.78473 11.2928 4.89475C10.5955 5.62413 9.90656 6.45452 9.24834 7.35933C8.11959 7.46125 7.03912 7.62489 6.04575 7.84416C5.98455 7.60546 5.92953 7.3653 5.88075 7.1239V7.12381ZM16.2333 9.61397C15.9986 9.21918 15.7553 8.82936 15.5034 8.44478C16.2692 8.53911 17.0029 8.66431 17.6918 8.81737C17.485 9.46319 17.2272 10.1383 16.9238 10.8306C16.7019 10.4206 16.4717 10.015 16.2333 9.61397V9.61397ZM12.0115 5.60852C12.4844 6.10759 12.958 6.66474 13.4239 7.26929C12.4789 7.22581 11.5323 7.22563 10.5873 7.26874C11.0536 6.66976 11.5313 6.11334 12.0115 5.60852ZM7.76269 9.62082C7.52722 10.0186 7.30131 10.4217 7.08516 10.8297C6.78666 10.14 6.53119 9.46173 6.32259 8.80678C7.00734 8.65756 7.73756 8.53555 8.49844 8.44295C8.24376 8.82988 7.99844 9.22258 7.76269 9.62072V9.62082ZM8.52028 15.5889C7.73419 15.5034 6.993 15.3877 6.30844 15.2425C6.52031 14.5758 6.78141 13.8832 7.08637 13.1786C7.30339 13.587 7.53024 13.9903 7.76672 14.3883C8.00991 14.7974 8.26172 15.1981 8.52028 15.5889ZM12.0398 18.4226C11.5538 17.9119 11.0692 17.3469 10.5958 16.7392C11.0554 16.7568 11.5238 16.7657 12 16.7657C12.4892 16.7657 12.9728 16.755 13.4487 16.7344C12.9814 17.353 12.5095 17.9188 12.0398 18.4226ZM16.9334 13.1426C17.2542 13.8549 17.5246 14.544 17.7393 15.1992C17.0435 15.3539 16.2922 15.4784 15.5005 15.571C15.7542 15.1792 15.9998 14.7826 16.2373 14.3814C16.4788 13.9736 16.7108 13.5605 16.9334 13.1426V13.1426ZM15.3492 13.8824C14.9857 14.4976 14.6017 15.1011 14.1979 15.692C13.4664 15.7424 12.7333 15.7675 12 15.7671C11.2531 15.7671 10.5266 15.7445 9.82706 15.7003C9.41271 15.1108 9.0214 14.5062 8.65397 13.8879H8.65406C8.28836 13.2729 7.94677 12.6445 7.63003 12.0042C7.94597 11.3638 8.28652 10.7351 8.65097 10.1196L8.65088 10.1197C9.01519 9.50404 9.40337 8.90207 9.81459 8.3151C10.5283 8.2625 11.2602 8.2351 11.9999 8.2351H12C12.7431 8.2351 13.4759 8.26277 14.1894 8.31574C14.5965 8.90183 14.9822 9.50173 15.3458 10.1143C15.7115 10.7285 16.0566 11.354 16.3805 11.9901C16.0599 12.6326 15.7159 13.2638 15.3492 13.8824V13.8824ZM17.4642 2.72988C18.2678 3.18137 18.5804 5.00205 18.0755 7.38965C18.0432 7.54197 18.007 7.69713 17.9677 7.85448C16.9718 7.63056 15.8906 7.46408 14.7586 7.36061C14.0992 6.44584 13.4158 5.61418 12.7298 4.8942C12.9096 4.72539 13.0937 4.56096 13.2818 4.40106C15.0537 2.8991 16.7097 2.30606 17.4642 2.72988V2.72988ZM12 9.89277C13.1836 9.89277 14.1431 10.8274 14.1431 11.9804C14.1431 13.1333 13.1836 14.068 12 14.068C10.8164 14.068 9.85687 13.1333 9.85687 11.9804C9.85687 10.8274 10.8164 9.89277 12 9.89277V9.89277Z" fill="#333333"/>
</svg>
