<svg width="24" height="24" viewBox="0 0 24 24" fill="none" xmlns="http://www.w3.org/2000/svg">
<path d="M9.89156 7.24462C9.89156 6.19928 10.7537 5.79659 12.1359 5.79659C14.1487 5.79659 16.7031 6.41975 18.7159 7.51683V1.22306C16.5228 0.337447 14.3342 0 12.1403 0C6.7755 0 3.2002 2.83081 3.2002 7.56407C3.2002 14.9647 13.2532 13.7648 13.2532 16.9563C13.2532 18.1937 12.1915 18.5918 10.7166 18.5918C8.52791 18.5918 5.69898 17.6777 3.47841 16.4592V22.4815C5.76296 23.4778 8.224 23.9944 10.7121 24C16.212 24 20.0002 21.6094 20.0002 16.8011C20.0002 8.82462 9.89156 10.2539 9.89156 7.24462V7.24462Z" fill="#333333"/>
</svg>
